<svg xmlns="http://www.w3.org/2000/svg" xmlns:xlink="http://www.w3.org/1999/xlink" width="60" zoomAndPan="magnify" viewBox="0 0 45 44.999999" height="60" preserveAspectRatio="xMidYMid meet" version="1.0"><defs><clipPath id="2a364e4a7b"><path d="M 5 7 L 41.214844 7 L 41.214844 42.800781 L 5 42.800781 Z M 5 7 " clip-rule="nonzero"/></clipPath><clipPath id="dc3fdb675d"><path d="M 31 2.300781 L 38 2.300781 L 38 8 L 31 8 Z M 31 2.300781 " clip-rule="nonzero"/></clipPath><clipPath id="0a6f032591"><path d="M 29 27 L 39 27 L 39 42.800781 L 29 42.800781 Z M 29 27 " clip-rule="nonzero"/></clipPath><clipPath id="e9060e6485"><path d="M 3.714844 5 L 9 5 L 9 8 L 3.714844 8 Z M 3.714844 5 " clip-rule="nonzero"/></clipPath><clipPath id="914e0a8c95"><path d="M 3.714844 10 L 9 10 L 9 12 L 3.714844 12 Z M 3.714844 10 " clip-rule="nonzero"/></clipPath><clipPath id="ffaf0e2ead"><path d="M 3.714844 15 L 9 15 L 9 17 L 3.714844 17 Z M 3.714844 15 " clip-rule="nonzero"/></clipPath><clipPath id="ac504d9560"><path d="M 3.714844 21 L 9 21 L 9 23 L 3.714844 23 Z M 3.714844 21 " clip-rule="nonzero"/></clipPath><clipPath id="e2d0c1ecdc"><path d="M 3.714844 26 L 9 26 L 9 28 L 3.714844 28 Z M 3.714844 26 " clip-rule="nonzero"/></clipPath><clipPath id="077f935476"><path d="M 3.714844 31 L 9 31 L 9 33 L 3.714844 33 Z M 3.714844 31 " clip-rule="nonzero"/></clipPath><clipPath id="d13d8ff22f"><path d="M 3.714844 36 L 9 36 L 9 38 L 3.714844 38 Z M 3.714844 36 " clip-rule="nonzero"/></clipPath></defs><g clip-path="url(#2a364e4a7b)"><path fill="#ffffff" d="M 40.722656 42.738281 L 5.988281 42.738281 C 5.71875 42.738281 5.5 42.519531 5.5 42.25 L 5.5 8.21875 C 5.5 7.949219 5.71875 7.730469 5.988281 7.730469 C 6.253906 7.730469 6.472656 7.949219 6.472656 8.21875 L 6.472656 41.761719 L 40.722656 41.761719 C 40.992188 41.761719 41.210938 41.980469 41.210938 42.25 C 41.210938 42.519531 40.992188 42.738281 40.722656 42.738281 " fill-opacity="1" fill-rule="nonzero"/></g><path fill="#ffffff" d="M 38.160156 32.070312 L 29.53125 32.070312 C 29.261719 32.070312 29.042969 31.851562 29.042969 31.578125 C 29.042969 31.3125 29.261719 31.09375 29.53125 31.09375 L 38.160156 31.09375 C 38.425781 31.09375 38.644531 31.3125 38.644531 31.578125 C 38.644531 31.851562 38.425781 32.070312 38.160156 32.070312 " fill-opacity="1" fill-rule="nonzero"/><path fill="#ffffff" d="M 38.160156 35.597656 L 29.53125 35.597656 C 29.261719 35.597656 29.042969 35.378906 29.042969 35.109375 C 29.042969 34.839844 29.261719 34.621094 29.53125 34.621094 L 38.160156 34.621094 C 38.425781 34.621094 38.644531 34.839844 38.644531 35.109375 C 38.644531 35.378906 38.425781 35.597656 38.160156 35.597656 " fill-opacity="1" fill-rule="nonzero"/><path fill="#ffffff" d="M 38.160156 39.128906 L 29.53125 39.128906 C 29.261719 39.128906 29.042969 38.910156 29.042969 38.640625 C 29.042969 38.367188 29.261719 38.152344 29.53125 38.152344 L 38.160156 38.152344 C 38.425781 38.152344 38.644531 38.367188 38.644531 38.640625 C 38.644531 38.910156 38.425781 39.128906 38.160156 39.128906 " fill-opacity="1" fill-rule="nonzero"/><g clip-path="url(#dc3fdb675d)"><path fill="#ffffff" d="M 34.730469 3.339844 C 33.734375 3.339844 32.921875 4.15625 32.921875 5.15625 C 32.921875 6.160156 33.734375 6.976562 34.730469 6.976562 C 35.726562 6.976562 36.539062 6.160156 36.539062 5.15625 C 36.539062 4.15625 35.726562 3.339844 34.730469 3.339844 Z M 34.730469 7.953125 C 33.195312 7.953125 31.949219 6.699219 31.949219 5.15625 C 31.949219 3.617188 33.195312 2.363281 34.730469 2.363281 C 36.261719 2.363281 37.511719 3.617188 37.511719 5.15625 C 37.511719 6.699219 36.261719 7.953125 34.730469 7.953125 " fill-opacity="1" fill-rule="nonzero"/></g><path fill="#ffffff" d="M 33.085938 26.484375 C 32.820312 26.484375 32.601562 26.265625 32.601562 25.996094 L 32.601562 17.992188 C 32.601562 17.722656 32.820312 17.503906 33.085938 17.503906 C 33.355469 17.503906 33.574219 17.722656 33.574219 17.992188 L 33.574219 25.996094 C 33.574219 26.265625 33.355469 26.484375 33.085938 26.484375 " fill-opacity="1" fill-rule="nonzero"/><path fill="#ffffff" d="M 36.371094 26.347656 C 36.101562 26.347656 35.886719 26.128906 35.886719 25.859375 L 35.886719 17.992188 C 35.886719 17.722656 36.101562 17.503906 36.371094 17.503906 C 36.640625 17.503906 36.859375 17.722656 36.859375 17.992188 L 36.859375 25.859375 C 36.859375 26.128906 36.640625 26.347656 36.371094 26.347656 " fill-opacity="1" fill-rule="nonzero"/><path fill="#ffffff" d="M 33.035156 14.355469 L 28.613281 14.355469 C 28.34375 14.355469 28.125 14.136719 28.125 13.867188 C 28.125 13.597656 28.34375 13.378906 28.613281 13.378906 L 33.035156 13.378906 C 33.703125 13.378906 34.246094 12.835938 34.246094 12.164062 L 34.246094 11.203125 C 34.246094 10.933594 34.460938 10.714844 34.730469 10.714844 C 35 10.714844 35.214844 10.933594 35.214844 11.203125 L 35.214844 12.164062 C 35.214844 13.375 34.238281 14.355469 33.035156 14.355469 " fill-opacity="1" fill-rule="nonzero"/><path fill="#ffffff" d="M 36.371094 28.539062 C 36.101562 28.539062 35.886719 28.320312 35.886719 28.050781 L 35.886719 26.347656 L 33.839844 26.347656 C 32.90625 26.347656 32.144531 27.113281 32.144531 28.050781 C 32.144531 28.320312 31.929688 28.539062 31.660156 28.539062 C 31.390625 28.539062 31.171875 28.320312 31.171875 28.050781 C 31.171875 26.574219 32.371094 25.371094 33.839844 25.371094 L 36.371094 25.371094 C 36.640625 25.371094 36.859375 25.589844 36.859375 25.859375 L 36.859375 28.050781 C 36.859375 28.320312 36.640625 28.539062 36.371094 28.539062 " fill-opacity="1" fill-rule="nonzero"/><path fill="#ffffff" d="M 36.371094 18.480469 L 33.085938 18.480469 C 32.910156 18.480469 32.742188 18.378906 32.660156 18.21875 C 32.171875 17.304688 31.84375 16.316406 31.691406 15.289062 C 31.648438 15.023438 31.832031 14.773438 32.097656 14.734375 C 32.359375 14.695312 32.609375 14.875 32.652344 15.144531 C 32.777344 15.964844 33.023438 16.757812 33.386719 17.503906 L 36.074219 17.503906 C 36.617188 16.382812 36.902344 15.144531 36.902344 13.902344 L 36.902344 11.507812 C 36.902344 10.304688 35.925781 9.324219 34.730469 9.324219 C 33.53125 9.324219 32.558594 10.304688 32.558594 11.507812 L 32.558594 12.617188 C 32.558594 12.886719 32.339844 13.105469 32.070312 13.105469 C 31.804688 13.105469 31.585938 12.886719 31.585938 12.617188 L 31.585938 11.507812 C 31.585938 9.765625 32.996094 8.347656 34.730469 8.347656 C 36.464844 8.347656 37.875 9.765625 37.875 11.507812 L 37.875 13.902344 C 37.875 15.402344 37.503906 16.894531 36.800781 18.21875 C 36.714844 18.378906 36.550781 18.480469 36.371094 18.480469 " fill-opacity="1" fill-rule="nonzero"/><g clip-path="url(#0a6f032591)"><path fill="#ffffff" d="M 38.160156 42.738281 C 37.890625 42.738281 37.671875 42.519531 37.671875 42.25 L 37.671875 28.539062 L 30.015625 28.539062 L 30.015625 42.25 C 30.015625 42.519531 29.796875 42.738281 29.53125 42.738281 C 29.261719 42.738281 29.042969 42.519531 29.042969 42.25 L 29.042969 28.050781 C 29.042969 27.78125 29.261719 27.5625 29.53125 27.5625 L 38.160156 27.5625 C 38.425781 27.5625 38.644531 27.78125 38.644531 28.050781 L 38.644531 42.25 C 38.644531 42.519531 38.425781 42.738281 38.160156 42.738281 " fill-opacity="1" fill-rule="nonzero"/></g><g clip-path="url(#e9060e6485)"><path fill="#ffffff" d="M 4.246094 7.972656 C 4.121094 7.972656 3.996094 7.925781 3.902344 7.832031 C 3.710938 7.640625 3.710938 7.332031 3.902344 7.140625 L 5.671875 5.363281 C 5.761719 5.273438 5.886719 5.21875 6.015625 5.21875 C 6.144531 5.21875 6.269531 5.273438 6.359375 5.363281 L 8.074219 7.09375 C 8.261719 7.285156 8.261719 7.59375 8.070312 7.78125 C 7.882812 7.972656 7.574219 7.972656 7.386719 7.78125 L 6.015625 6.398438 L 4.589844 7.832031 C 4.492188 7.925781 4.371094 7.972656 4.246094 7.972656 " fill-opacity="1" fill-rule="nonzero"/></g><path fill="#ffffff" d="M 25.863281 14.355469 C 25.71875 14.355469 25.574219 14.289062 25.476562 14.164062 L 24.304688 12.605469 L 22.703125 13.832031 C 22.488281 13.996094 22.183594 13.953125 22.019531 13.738281 C 21.855469 13.523438 21.898438 13.21875 22.113281 13.054688 L 24.105469 11.535156 C 24.207031 11.457031 24.335938 11.421875 24.464844 11.4375 C 24.59375 11.457031 24.707031 11.523438 24.785156 11.628906 L 26.253906 13.574219 C 26.414062 13.789062 26.371094 14.09375 26.160156 14.257812 C 26.070312 14.324219 25.96875 14.355469 25.863281 14.355469 " fill-opacity="1" fill-rule="nonzero"/><g clip-path="url(#914e0a8c95)"><path fill="#ffffff" d="M 7.730469 11.675781 L 4.246094 11.675781 C 3.976562 11.675781 3.757812 11.457031 3.757812 11.1875 C 3.757812 10.917969 3.976562 10.699219 4.246094 10.699219 L 7.730469 10.699219 C 8 10.699219 8.214844 10.917969 8.214844 11.1875 C 8.214844 11.457031 8 11.675781 7.730469 11.675781 " fill-opacity="1" fill-rule="nonzero"/></g><g clip-path="url(#ffaf0e2ead)"><path fill="#ffffff" d="M 7.730469 16.925781 L 4.246094 16.925781 C 3.976562 16.925781 3.757812 16.707031 3.757812 16.4375 C 3.757812 16.167969 3.976562 15.949219 4.246094 15.949219 L 7.730469 15.949219 C 8 15.949219 8.214844 16.167969 8.214844 16.4375 C 8.214844 16.707031 8 16.925781 7.730469 16.925781 " fill-opacity="1" fill-rule="nonzero"/></g><g clip-path="url(#ac504d9560)"><path fill="#ffffff" d="M 7.730469 22.175781 L 4.246094 22.175781 C 3.976562 22.175781 3.757812 21.957031 3.757812 21.6875 C 3.757812 21.417969 3.976562 21.199219 4.246094 21.199219 L 7.730469 21.199219 C 8 21.199219 8.214844 21.417969 8.214844 21.6875 C 8.214844 21.957031 8 22.175781 7.730469 22.175781 " fill-opacity="1" fill-rule="nonzero"/></g><g clip-path="url(#e2d0c1ecdc)"><path fill="#ffffff" d="M 7.730469 27.425781 L 4.246094 27.425781 C 3.976562 27.425781 3.757812 27.207031 3.757812 26.9375 C 3.757812 26.667969 3.976562 26.449219 4.246094 26.449219 L 7.730469 26.449219 C 8 26.449219 8.214844 26.667969 8.214844 26.9375 C 8.214844 27.207031 8 27.425781 7.730469 27.425781 " fill-opacity="1" fill-rule="nonzero"/></g><g clip-path="url(#077f935476)"><path fill="#ffffff" d="M 7.730469 32.675781 L 4.246094 32.675781 C 3.976562 32.675781 3.757812 32.453125 3.757812 32.183594 C 3.757812 31.914062 3.976562 31.695312 4.246094 31.695312 L 7.730469 31.695312 C 8 31.695312 8.214844 31.914062 8.214844 32.183594 C 8.214844 32.453125 8 32.675781 7.730469 32.675781 " fill-opacity="1" fill-rule="nonzero"/></g><g clip-path="url(#d13d8ff22f)"><path fill="#ffffff" d="M 7.730469 37.921875 L 4.246094 37.921875 C 3.976562 37.921875 3.757812 37.703125 3.757812 37.433594 C 3.757812 37.164062 3.976562 36.945312 4.246094 36.945312 L 7.730469 36.945312 C 8 36.945312 8.214844 37.164062 8.214844 37.433594 C 8.214844 37.703125 8 37.921875 7.730469 37.921875 " fill-opacity="1" fill-rule="nonzero"/></g><path fill="#ffffff" d="M 10.363281 37.921875 C 10.3125 37.921875 10.261719 37.914062 10.210938 37.898438 C 9.957031 37.8125 9.816406 37.539062 9.902344 37.28125 L 11.601562 32.105469 C 11.667969 31.90625 11.855469 31.769531 12.066406 31.769531 L 15.324219 31.769531 L 17.75 21.574219 C 17.800781 21.355469 17.996094 21.199219 18.222656 21.199219 L 22.117188 21.199219 L 23.570312 14.195312 C 23.625 13.933594 23.882812 13.761719 24.144531 13.820312 C 24.410156 13.875 24.578125 14.132812 24.523438 14.398438 L 22.988281 21.785156 C 22.941406 22.011719 22.742188 22.175781 22.511719 22.175781 L 18.605469 22.175781 L 16.183594 32.371094 C 16.132812 32.589844 15.933594 32.746094 15.710938 32.746094 L 12.414062 32.746094 L 10.824219 37.585938 C 10.757812 37.792969 10.566406 37.921875 10.363281 37.921875 " fill-opacity="1" fill-rule="nonzero"/><path fill="#ffffff" d="M 16.089844 22.175781 C 15.960938 22.175781 15.835938 22.121094 15.746094 22.03125 C 15.652344 21.941406 15.601562 21.816406 15.601562 21.6875 C 15.601562 21.558594 15.652344 21.433594 15.746094 21.339844 C 15.925781 21.160156 16.25 21.160156 16.429688 21.339844 C 16.523438 21.433594 16.574219 21.558594 16.574219 21.6875 C 16.574219 21.8125 16.523438 21.941406 16.429688 22.03125 C 16.339844 22.121094 16.214844 22.175781 16.089844 22.175781 " fill-opacity="1" fill-rule="nonzero"/><path fill="#ffffff" d="M 11.699219 22.175781 L 11.695312 22.175781 C 11.425781 22.175781 11.207031 21.957031 11.207031 21.6875 C 11.207031 21.417969 11.425781 21.199219 11.695312 21.199219 C 11.960938 21.199219 12.183594 21.417969 12.183594 21.6875 C 12.183594 21.957031 11.96875 22.175781 11.699219 22.175781 Z M 13.894531 22.175781 L 13.890625 22.175781 C 13.621094 22.175781 13.40625 21.957031 13.40625 21.6875 C 13.40625 21.417969 13.621094 21.199219 13.890625 21.199219 C 14.160156 21.199219 14.378906 21.417969 14.378906 21.6875 C 14.378906 21.957031 14.164062 22.175781 13.894531 22.175781 " fill-opacity="1" fill-rule="nonzero"/><path fill="#ffffff" d="M 9.5 22.175781 C 9.371094 22.175781 9.242188 22.121094 9.152344 22.03125 C 9.0625 21.941406 9.015625 21.8125 9.015625 21.6875 C 9.015625 21.558594 9.0625 21.433594 9.152344 21.339844 C 9.335938 21.160156 9.660156 21.160156 9.84375 21.339844 C 9.933594 21.433594 9.984375 21.558594 9.984375 21.6875 C 9.984375 21.8125 9.933594 21.941406 9.84375 22.03125 C 9.75 22.121094 9.625 22.175781 9.5 22.175781 " fill-opacity="1" fill-rule="nonzero"/><path fill="#ffffff" d="M 21.015625 11.675781 C 20.886719 11.675781 20.765625 11.625 20.671875 11.535156 C 20.582031 11.441406 20.53125 11.3125 20.53125 11.1875 C 20.53125 11.058594 20.582031 10.933594 20.671875 10.84375 C 20.855469 10.660156 21.179688 10.660156 21.359375 10.84375 C 21.453125 10.933594 21.503906 11.058594 21.503906 11.1875 C 21.503906 11.3125 21.453125 11.441406 21.359375 11.535156 C 21.269531 11.625 21.144531 11.675781 21.015625 11.675781 " fill-opacity="1" fill-rule="nonzero"/><path fill="#ffffff" d="M 10.949219 11.1875 C 10.949219 10.917969 11.164062 10.699219 11.433594 10.699219 C 11.703125 10.699219 11.921875 10.917969 11.921875 11.1875 C 11.921875 11.457031 11.703125 11.675781 11.433594 11.675781 C 11.164062 11.675781 10.949219 11.457031 10.949219 11.1875 Z M 12.863281 11.1875 C 12.863281 10.917969 13.082031 10.699219 13.351562 10.699219 C 13.617188 10.699219 13.835938 10.917969 13.835938 11.1875 C 13.835938 11.457031 13.617188 11.675781 13.351562 11.675781 C 13.082031 11.675781 12.863281 11.457031 12.863281 11.1875 Z M 14.78125 11.1875 C 14.78125 10.917969 15 10.699219 15.265625 10.699219 C 15.535156 10.699219 15.753906 10.917969 15.753906 11.1875 C 15.753906 11.457031 15.535156 11.675781 15.265625 11.675781 C 15 11.675781 14.78125 11.457031 14.78125 11.1875 Z M 16.699219 11.1875 C 16.699219 10.917969 16.914062 10.699219 17.183594 10.699219 C 17.453125 10.699219 17.667969 10.917969 17.667969 11.1875 C 17.667969 11.457031 17.453125 11.675781 17.183594 11.675781 C 16.914062 11.675781 16.699219 11.457031 16.699219 11.1875 Z M 18.613281 11.1875 C 18.613281 10.917969 18.828125 10.699219 19.097656 10.699219 C 19.367188 10.699219 19.589844 10.917969 19.589844 11.1875 C 19.589844 11.457031 19.367188 11.675781 19.097656 11.675781 C 18.828125 11.675781 18.613281 11.457031 18.613281 11.1875 " fill-opacity="1" fill-rule="nonzero"/><path fill="#ffffff" d="M 9.5 11.675781 C 9.371094 11.675781 9.246094 11.625 9.152344 11.535156 C 9.0625 11.441406 9.015625 11.3125 9.015625 11.1875 C 9.015625 11.058594 9.0625 10.933594 9.152344 10.84375 C 9.335938 10.660156 9.660156 10.660156 9.84375 10.84375 C 9.933594 10.933594 9.984375 11.058594 9.984375 11.1875 C 9.984375 11.3125 9.933594 11.441406 9.84375 11.535156 C 9.75 11.625 9.625 11.675781 9.5 11.675781 " fill-opacity="1" fill-rule="nonzero"/></svg>