<svg xmlns="http://www.w3.org/2000/svg" xmlns:xlink="http://www.w3.org/1999/xlink" width="60" zoomAndPan="magnify" viewBox="0 0 45 44.999999" height="60" preserveAspectRatio="xMidYMid meet" version="1.0"><defs><clipPath id="e6f6c10897"><path d="M 0 6.429688 L 45 6.429688 L 45 38.679688 L 0 38.679688 Z M 0 6.429688 " clip-rule="nonzero"/></clipPath></defs><path fill="#ffffff" d="M 12.859375 16.105469 L 16.875 16.105469 C 17.097656 16.105469 17.289062 16.027344 17.445312 15.871094 C 17.601562 15.710938 17.679688 15.523438 17.679688 15.300781 C 17.679688 15.078125 17.601562 14.886719 17.445312 14.730469 C 17.289062 14.574219 17.097656 14.492188 16.875 14.492188 L 12.859375 14.492188 C 12.636719 14.492188 12.449219 14.574219 12.292969 14.730469 C 12.136719 14.886719 12.058594 15.078125 12.058594 15.300781 C 12.058594 15.523438 12.136719 15.710938 12.292969 15.871094 C 12.449219 16.027344 12.636719 16.105469 12.859375 16.105469 Z M 12.859375 16.105469 " fill-opacity="1" fill-rule="nonzero"/><path fill="#ffffff" d="M 20.089844 16.105469 L 20.894531 16.105469 C 21.113281 16.105469 21.304688 16.027344 21.460938 15.871094 C 21.617188 15.710938 21.695312 15.523438 21.695312 15.300781 C 21.695312 15.078125 21.617188 14.886719 21.460938 14.730469 C 21.304688 14.574219 21.113281 14.492188 20.894531 14.492188 L 20.089844 14.492188 C 19.867188 14.492188 19.679688 14.574219 19.523438 14.730469 C 19.363281 14.886719 19.285156 15.078125 19.285156 15.300781 C 19.285156 15.523438 19.363281 15.710938 19.523438 15.871094 C 19.679688 16.027344 19.867188 16.105469 20.089844 16.105469 Z M 20.089844 16.105469 " fill-opacity="1" fill-rule="nonzero"/><path fill="#ffffff" d="M 12.859375 19.332031 L 13.664062 19.332031 C 13.886719 19.332031 14.074219 19.253906 14.230469 19.09375 C 14.386719 18.9375 14.46875 18.746094 14.46875 18.523438 C 14.46875 18.300781 14.386719 18.113281 14.230469 17.953125 C 14.074219 17.796875 13.886719 17.71875 13.664062 17.71875 L 12.859375 17.71875 C 12.636719 17.71875 12.449219 17.796875 12.292969 17.953125 C 12.136719 18.113281 12.058594 18.300781 12.058594 18.523438 C 12.058594 18.746094 12.136719 18.9375 12.292969 19.09375 C 12.449219 19.253906 12.636719 19.332031 12.859375 19.332031 Z M 12.859375 19.332031 " fill-opacity="1" fill-rule="nonzero"/><path fill="#ffffff" d="M 20.894531 17.71875 L 16.875 17.71875 C 16.65625 17.71875 16.464844 17.796875 16.308594 17.953125 C 16.152344 18.113281 16.074219 18.300781 16.074219 18.523438 C 16.074219 18.746094 16.152344 18.9375 16.308594 19.09375 C 16.464844 19.253906 16.65625 19.332031 16.875 19.332031 L 20.894531 19.332031 C 21.113281 19.332031 21.304688 19.253906 21.460938 19.09375 C 21.617188 18.9375 21.695312 18.746094 21.695312 18.523438 C 21.695312 18.300781 21.617188 18.113281 21.460938 17.953125 C 21.304688 17.796875 21.113281 17.71875 20.894531 17.71875 Z M 20.894531 17.71875 " fill-opacity="1" fill-rule="nonzero"/><path fill="#ffffff" d="M 12.859375 22.554688 L 20.894531 22.554688 C 21.113281 22.554688 21.304688 22.476562 21.460938 22.320312 C 21.617188 22.164062 21.695312 21.972656 21.695312 21.75 C 21.695312 21.527344 21.617188 21.335938 21.460938 21.179688 C 21.304688 21.023438 21.113281 20.945312 20.894531 20.945312 L 12.859375 20.945312 C 12.636719 20.945312 12.449219 21.023438 12.292969 21.179688 C 12.136719 21.335938 12.058594 21.527344 12.058594 21.75 C 12.058594 21.972656 12.136719 22.164062 12.292969 22.320312 C 12.449219 22.476562 12.636719 22.554688 12.859375 22.554688 Z M 12.859375 22.554688 " fill-opacity="1" fill-rule="nonzero"/><path fill="#ffffff" d="M 24.105469 20.945312 L 24.105469 22.554688 C 24.105469 22.777344 24.027344 22.96875 23.871094 23.125 C 23.714844 23.285156 23.523438 23.363281 23.304688 23.363281 C 23.082031 23.363281 22.890625 23.441406 22.734375 23.597656 C 22.578125 23.757812 22.5 23.945312 22.5 24.167969 C 22.5 24.390625 22.578125 24.582031 22.734375 24.738281 C 22.890625 24.894531 23.082031 24.976562 23.304688 24.976562 C 23.621094 24.976562 23.929688 24.914062 24.226562 24.789062 C 24.519531 24.667969 24.78125 24.492188 25.007812 24.265625 C 25.234375 24.039062 25.40625 23.777344 25.53125 23.480469 C 25.652344 23.1875 25.714844 22.878906 25.714844 22.554688 L 25.714844 20.945312 C 25.714844 20.730469 25.753906 20.523438 25.835938 20.328125 C 25.917969 20.128906 26.035156 19.953125 26.183594 19.804688 C 26.335938 19.652344 26.507812 19.535156 26.707031 19.453125 C 26.902344 19.371094 27.105469 19.332031 27.320312 19.332031 C 27.542969 19.332031 27.730469 19.253906 27.886719 19.09375 C 28.042969 18.9375 28.125 18.746094 28.125 18.523438 C 28.125 18.300781 28.042969 18.113281 27.886719 17.953125 C 27.730469 17.796875 27.542969 17.71875 27.320312 17.71875 C 27.105469 17.71875 26.902344 17.679688 26.707031 17.597656 C 26.507812 17.515625 26.335938 17.398438 26.183594 17.246094 C 26.03125 17.09375 25.917969 16.921875 25.835938 16.722656 C 25.753906 16.527344 25.714844 16.320312 25.714844 16.105469 L 25.714844 14.492188 C 25.714844 14.171875 25.652344 13.863281 25.53125 13.566406 C 25.40625 13.273438 25.234375 13.011719 25.007812 12.785156 C 24.78125 12.558594 24.519531 12.382812 24.226562 12.257812 C 23.929688 12.136719 23.621094 12.074219 23.304688 12.074219 C 23.082031 12.074219 22.890625 12.152344 22.734375 12.3125 C 22.578125 12.46875 22.5 12.660156 22.5 12.882812 C 22.5 13.105469 22.578125 13.292969 22.734375 13.453125 C 22.890625 13.609375 23.082031 13.6875 23.304688 13.6875 C 23.523438 13.6875 23.714844 13.765625 23.871094 13.921875 C 24.027344 14.082031 24.105469 14.269531 24.105469 14.492188 L 24.105469 16.105469 C 24.113281 17.082031 24.480469 17.886719 25.214844 18.523438 C 24.480469 19.164062 24.113281 19.96875 24.105469 20.945312 Z M 24.105469 20.945312 " fill-opacity="1" fill-rule="nonzero"/><path fill="#ffffff" d="M 6.433594 19.332031 C 6.648438 19.332031 6.851562 19.371094 7.046875 19.453125 C 7.246094 19.535156 7.417969 19.652344 7.570312 19.804688 C 7.71875 19.953125 7.835938 20.128906 7.917969 20.328125 C 8 20.523438 8.039062 20.730469 8.039062 20.945312 L 8.039062 22.554688 C 8.039062 22.878906 8.101562 23.1875 8.222656 23.480469 C 8.347656 23.777344 8.519531 24.039062 8.746094 24.265625 C 8.972656 24.492188 9.234375 24.667969 9.527344 24.789062 C 9.824219 24.914062 10.128906 24.976562 10.449219 24.976562 C 10.671875 24.976562 10.863281 24.894531 11.019531 24.738281 C 11.175781 24.582031 11.253906 24.390625 11.253906 24.167969 C 11.253906 23.945312 11.175781 23.757812 11.019531 23.597656 C 10.863281 23.441406 10.671875 23.363281 10.449219 23.363281 C 10.226562 23.363281 10.039062 23.285156 9.882812 23.125 C 9.726562 22.96875 9.648438 22.777344 9.648438 22.554688 L 9.648438 20.945312 C 9.640625 19.96875 9.273438 19.164062 8.539062 18.523438 C 9.273438 17.886719 9.640625 17.082031 9.648438 16.105469 L 9.648438 14.492188 C 9.648438 14.269531 9.726562 14.082031 9.882812 13.921875 C 10.039062 13.765625 10.226562 13.6875 10.449219 13.6875 C 10.671875 13.6875 10.863281 13.609375 11.019531 13.453125 C 11.175781 13.292969 11.253906 13.105469 11.253906 12.882812 C 11.253906 12.660156 11.175781 12.46875 11.019531 12.3125 C 10.863281 12.152344 10.671875 12.074219 10.449219 12.074219 C 10.128906 12.074219 9.824219 12.136719 9.527344 12.257812 C 9.234375 12.382812 8.972656 12.558594 8.746094 12.785156 C 8.519531 13.011719 8.347656 13.273438 8.222656 13.566406 C 8.101562 13.863281 8.039062 14.171875 8.039062 14.492188 L 8.039062 16.105469 C 8.039062 16.320312 8 16.527344 7.917969 16.722656 C 7.835938 16.921875 7.71875 17.09375 7.570312 17.246094 C 7.417969 17.398438 7.246094 17.515625 7.046875 17.597656 C 6.851562 17.679688 6.648438 17.71875 6.433594 17.71875 C 6.210938 17.71875 6.023438 17.796875 5.867188 17.953125 C 5.707031 18.113281 5.628906 18.300781 5.628906 18.523438 C 5.628906 18.746094 5.707031 18.9375 5.867188 19.09375 C 6.023438 19.253906 6.210938 19.332031 6.433594 19.332031 Z M 6.433594 19.332031 " fill-opacity="1" fill-rule="nonzero"/><g clip-path="url(#e6f6c10897)"><path fill="#ffffff" d="M 43.386719 32.230469 L 42.582031 32.230469 L 42.582031 7.238281 C 42.582031 7.015625 42.503906 6.824219 42.347656 6.667969 C 42.191406 6.511719 42 6.429688 41.78125 6.429688 L 3.21875 6.429688 C 3 6.429688 2.808594 6.511719 2.652344 6.667969 C 2.496094 6.824219 2.417969 7.015625 2.417969 7.238281 L 2.417969 32.230469 L 1.613281 32.230469 C 1.402344 32.230469 1.195312 32.273438 1 32.355469 C 0.800781 32.4375 0.628906 32.550781 0.476562 32.703125 C 0.328125 32.855469 0.210938 33.027344 0.128906 33.226562 C 0.046875 33.425781 0.0078125 33.628906 0.0078125 33.84375 L 0.0078125 34.648438 C 0.0078125 34.914062 0.03125 35.175781 0.0859375 35.4375 C 0.136719 35.695312 0.210938 35.949219 0.3125 36.191406 C 0.414062 36.4375 0.539062 36.667969 0.683594 36.890625 C 0.832031 37.109375 0.996094 37.3125 1.183594 37.5 C 1.371094 37.6875 1.574219 37.855469 1.792969 38 C 2.011719 38.148438 2.242188 38.273438 2.488281 38.375 C 2.730469 38.476562 2.980469 38.550781 3.238281 38.605469 C 3.5 38.65625 3.761719 38.679688 4.023438 38.679688 L 40.976562 38.679688 C 41.238281 38.679688 41.5 38.65625 41.761719 38.605469 C 42.019531 38.550781 42.269531 38.476562 42.511719 38.375 C 42.757812 38.273438 42.988281 38.148438 43.207031 38 C 43.425781 37.855469 43.628906 37.6875 43.816406 37.5 C 44.003906 37.3125 44.167969 37.109375 44.316406 36.890625 C 44.460938 36.667969 44.585938 36.4375 44.6875 36.191406 C 44.789062 35.949219 44.863281 35.695312 44.914062 35.4375 C 44.96875 35.175781 44.992188 34.914062 44.992188 34.648438 L 44.992188 33.84375 C 44.992188 33.628906 44.953125 33.425781 44.871094 33.226562 C 44.789062 33.027344 44.671875 32.855469 44.523438 32.703125 C 44.371094 32.550781 44.199219 32.4375 44 32.355469 C 43.804688 32.273438 43.597656 32.230469 43.386719 32.230469 Z M 36.15625 25.78125 C 35.945312 25.78125 35.738281 25.742188 35.542969 25.660156 C 35.34375 25.578125 35.171875 25.460938 35.019531 25.308594 C 34.871094 25.15625 34.753906 24.984375 34.671875 24.785156 C 34.589844 24.589844 34.550781 24.382812 34.550781 24.167969 C 34.550781 23.953125 34.589844 23.75 34.671875 23.550781 C 34.753906 23.355469 34.871094 23.179688 35.019531 23.027344 C 35.171875 22.878906 35.34375 22.761719 35.542969 22.679688 C 35.738281 22.597656 35.945312 22.554688 36.15625 22.554688 C 36.371094 22.554688 36.574219 22.597656 36.769531 22.679688 C 36.96875 22.761719 37.140625 22.878906 37.292969 23.027344 C 37.441406 23.179688 37.558594 23.355469 37.640625 23.550781 C 37.722656 23.75 37.761719 23.953125 37.761719 24.167969 C 37.761719 24.382812 37.722656 24.589844 37.640625 24.785156 C 37.558594 24.984375 37.441406 25.15625 37.292969 25.308594 C 37.140625 25.460938 36.96875 25.578125 36.769531 25.660156 C 36.574219 25.742188 36.371094 25.78125 36.15625 25.78125 Z M 34.75 27.054688 C 35.191406 27.28125 35.660156 27.394531 36.15625 27.394531 C 36.652344 27.394531 37.121094 27.28125 37.5625 27.054688 C 37.875 27.28125 38.121094 27.566406 38.296875 27.910156 C 38.476562 28.253906 38.5625 28.621094 38.566406 29.007812 L 33.746094 29.007812 C 33.75 28.621094 33.839844 28.253906 34.015625 27.910156 C 34.191406 27.566406 34.4375 27.28125 34.75 27.054688 Z M 38.765625 25.992188 C 38.988281 25.667969 39.144531 25.3125 39.238281 24.929688 C 39.332031 24.546875 39.351562 24.164062 39.304688 23.773438 C 39.257812 23.382812 39.140625 23.011719 38.957031 22.664062 C 38.777344 22.316406 38.539062 22.011719 38.246094 21.75 C 37.949219 21.492188 37.621094 21.292969 37.253906 21.152344 C 36.886719 21.011719 36.507812 20.941406 36.117188 20.941406 C 35.722656 20.941406 35.34375 21.011719 34.980469 21.152344 C 34.613281 21.292969 34.28125 21.492188 33.988281 21.75 C 33.695312 22.011719 33.457031 22.316406 33.273438 22.664062 C 33.089844 23.011719 32.976562 23.382812 32.925781 23.773438 C 32.878906 24.164062 32.902344 24.546875 32.992188 24.929688 C 33.085938 25.3125 33.242188 25.667969 33.464844 25.992188 C 33.039062 26.375 32.707031 26.828125 32.476562 27.355469 C 32.246094 27.878906 32.132812 28.429688 32.140625 29.007812 L 31.335938 29.007812 L 31.335938 19.332031 L 40.976562 19.332031 L 40.976562 29.007812 L 40.171875 29.007812 C 40.175781 28.429688 40.054688 27.875 39.816406 27.347656 C 39.578125 26.824219 39.242188 26.371094 38.808594 25.992188 Z M 36.15625 14.492188 C 35.945312 14.492188 35.738281 14.453125 35.542969 14.371094 C 35.34375 14.289062 35.171875 14.171875 35.019531 14.023438 C 34.871094 13.871094 34.753906 13.695312 34.671875 13.5 C 34.589844 13.300781 34.550781 13.09375 34.550781 12.882812 C 34.550781 12.667969 34.589844 12.460938 34.671875 12.265625 C 34.753906 12.066406 34.871094 11.890625 35.019531 11.742188 C 35.171875 11.589844 35.34375 11.472656 35.542969 11.390625 C 35.738281 11.308594 35.945312 11.269531 36.15625 11.269531 C 36.371094 11.269531 36.574219 11.308594 36.769531 11.390625 C 36.96875 11.472656 37.140625 11.589844 37.292969 11.742188 C 37.441406 11.890625 37.558594 12.066406 37.640625 12.265625 C 37.722656 12.460938 37.761719 12.667969 37.761719 12.882812 C 37.761719 13.09375 37.722656 13.300781 37.640625 13.5 C 37.558594 13.695312 37.441406 13.871094 37.292969 14.023438 C 37.140625 14.171875 36.96875 14.289062 36.769531 14.371094 C 36.574219 14.453125 36.371094 14.492188 36.15625 14.492188 Z M 34.75 15.769531 C 35.191406 15.992188 35.660156 16.105469 36.15625 16.105469 C 36.652344 16.105469 37.121094 15.992188 37.5625 15.769531 C 37.875 15.992188 38.121094 16.277344 38.296875 16.621094 C 38.476562 16.964844 38.5625 17.332031 38.566406 17.71875 L 33.746094 17.71875 C 33.75 17.332031 33.839844 16.964844 34.015625 16.621094 C 34.191406 16.277344 34.4375 15.992188 34.75 15.769531 Z M 40.976562 8.042969 L 40.976562 17.71875 L 40.171875 17.71875 C 40.175781 17.140625 40.054688 16.589844 39.816406 16.0625 C 39.578125 15.535156 39.242188 15.082031 38.808594 14.703125 C 39.027344 14.378906 39.1875 14.027344 39.277344 13.644531 C 39.371094 13.261719 39.394531 12.875 39.34375 12.484375 C 39.296875 12.09375 39.183594 11.726562 39 11.378906 C 38.816406 11.027344 38.578125 10.726562 38.285156 10.464844 C 37.992188 10.203125 37.660156 10.003906 37.292969 9.863281 C 36.925781 9.726562 36.546875 9.65625 36.15625 9.65625 C 35.765625 9.65625 35.386719 9.726562 35.019531 9.863281 C 34.652344 10.003906 34.320312 10.203125 34.027344 10.464844 C 33.734375 10.726562 33.496094 11.027344 33.3125 11.378906 C 33.132812 11.726562 33.015625 12.09375 32.96875 12.484375 C 32.917969 12.875 32.941406 13.261719 33.035156 13.644531 C 33.125 14.027344 33.285156 14.378906 33.503906 14.703125 C 33.070312 15.082031 32.734375 15.535156 32.496094 16.0625 C 32.257812 16.589844 32.136719 17.140625 32.140625 17.71875 L 31.335938 17.71875 L 31.335938 8.042969 Z M 29.730469 8.042969 L 29.730469 29.007812 L 4.023438 29.007812 L 4.023438 8.042969 Z M 4.023438 30.617188 L 40.976562 30.617188 L 40.976562 32.230469 L 28.925781 32.230469 C 28.703125 32.230469 28.515625 32.308594 28.355469 32.464844 L 26.992188 33.84375 L 18.007812 33.84375 L 16.644531 32.464844 C 16.484375 32.308594 16.296875 32.230469 16.074219 32.230469 L 4.023438 32.230469 Z M 43.386719 34.648438 C 43.386719 34.972656 43.324219 35.28125 43.203125 35.574219 C 43.082031 35.871094 42.90625 36.132812 42.679688 36.359375 C 42.453125 36.585938 42.195312 36.761719 41.898438 36.882812 C 41.601562 37.007812 41.296875 37.070312 40.976562 37.070312 L 4.023438 37.070312 C 3.703125 37.070312 3.398438 37.007812 3.101562 36.882812 C 2.804688 36.761719 2.546875 36.585938 2.320312 36.359375 C 2.09375 36.132812 1.917969 35.871094 1.796875 35.574219 C 1.675781 35.28125 1.613281 34.972656 1.613281 34.648438 L 1.613281 33.84375 L 15.742188 33.84375 L 17.109375 35.222656 C 17.269531 35.378906 17.457031 35.457031 17.679688 35.457031 L 27.320312 35.457031 C 27.542969 35.457031 27.730469 35.378906 27.890625 35.222656 L 29.257812 33.84375 L 43.386719 33.84375 Z M 43.386719 34.648438 " fill-opacity="1" fill-rule="nonzero"/></g></svg>