<svg xmlns="http://www.w3.org/2000/svg" xmlns:xlink="http://www.w3.org/1999/xlink" width="99" zoomAndPan="magnify" viewBox="0 0 74.25 44.999999" height="60" preserveAspectRatio="xMidYMid meet" version="1.0"><defs><clipPath id="ba070a1c78"><path d="M 2.191406 6.097656 L 71.246094 6.097656 L 71.246094 38.769531 L 2.191406 38.769531 Z M 2.191406 6.097656 " clip-rule="nonzero"/></clipPath></defs><path fill="#ffffff" d="M 25 32.777344 L 24.445312 33.941406 L 49.121094 33.941406 L 48.492188 32.746094 C 48.15625 32.113281 47.574219 31.601562 46.851562 31.167969 C 46.121094 30.730469 45.191406 30.347656 44.082031 30 C 41.839844 29.300781 39.386719 28.957031 36.71875 28.957031 C 34.050781 28.957031 31.59375 29.300781 29.355469 30 C 28.246094 30.347656 27.320312 30.734375 26.597656 31.171875 C 25.882812 31.605469 25.308594 32.128906 25 32.777344 Z M 3.542969 37.675781 L 3.542969 34.265625 C 3.542969 32.710938 4.355469 31.378906 6.253906 30.277344 C 8.164062 29.167969 10.746094 28.578125 14.054688 28.578125 C 14.660156 28.578125 15.238281 28.589844 15.792969 28.609375 C 15.886719 28.613281 15.980469 28.617188 16.074219 28.625 C 15.710938 29.28125 15.414062 29.960938 15.1875 30.664062 C 14.832031 31.777344 14.652344 32.933594 14.652344 34.132812 L 14.652344 37.675781 Z M 20.539062 37.675781 L 20.539062 34.132812 C 20.539062 32.871094 20.902344 31.722656 21.632812 30.675781 C 22.378906 29.605469 23.453125 28.640625 24.882812 27.792969 C 26.304688 26.953125 28.023438 26.308594 30.054688 25.878906 C 32.09375 25.445312 34.3125 25.222656 36.71875 25.222656 C 39.171875 25.222656 41.414062 25.445312 43.453125 25.878906 C 45.484375 26.308594 47.203125 26.953125 48.621094 27.792969 C 50.050781 28.640625 51.109375 29.601562 51.832031 30.667969 C 52.542969 31.714844 52.894531 32.863281 52.894531 34.132812 L 52.894531 37.675781 Z M 58.78125 37.675781 L 58.78125 34.132812 C 58.78125 32.898438 58.621094 31.722656 58.289062 30.613281 C 58.082031 29.921875 57.8125 29.257812 57.476562 28.625 C 57.566406 28.617188 57.660156 28.613281 57.75 28.609375 C 58.28125 28.589844 58.824219 28.578125 59.378906 28.578125 C 62.695312 28.578125 65.277344 29.15625 67.1875 30.246094 C 69.074219 31.324219 69.890625 32.660156 69.890625 34.265625 L 69.890625 37.675781 Z M 14.054688 24.261719 C 12.703125 24.261719 11.574219 23.8125 10.617188 22.910156 C 9.664062 22.007812 9.210938 20.957031 9.210938 19.714844 C 9.210938 18.417969 9.671875 17.359375 10.613281 16.488281 C 11.566406 15.605469 12.699219 15.164062 14.054688 15.164062 C 15.46875 15.164062 16.605469 15.609375 17.527344 16.484375 C 18.449219 17.351562 18.902344 18.414062 18.902344 19.714844 C 18.902344 20.960938 18.453125 22.015625 17.523438 22.917969 C 16.597656 23.808594 15.460938 24.261719 14.054688 24.261719 Z M 59.378906 24.261719 C 58.027344 24.261719 56.898438 23.8125 55.941406 22.910156 C 54.988281 22.007812 54.535156 20.957031 54.535156 19.714844 C 54.535156 18.417969 54.996094 17.359375 55.9375 16.488281 C 56.890625 15.605469 58.023438 15.164062 59.378906 15.164062 C 60.792969 15.164062 61.929688 15.609375 62.851562 16.484375 C 63.773438 17.351562 64.226562 18.414062 64.226562 19.714844 C 64.226562 20.960938 63.777344 22.015625 62.847656 22.917969 C 61.921875 23.808594 60.785156 24.261719 59.378906 24.261719 Z M 36.71875 21.578125 C 34.558594 21.578125 32.757812 20.871094 31.261719 19.457031 C 29.769531 18.042969 29.039062 16.355469 29.039062 14.347656 C 29.039062 12.289062 29.773438 10.597656 31.257812 9.210938 C 32.75 7.816406 34.554688 7.117188 36.71875 7.117188 C 38.933594 7.117188 40.742188 7.820312 42.207031 9.207031 C 43.671875 10.589844 44.398438 12.285156 44.398438 14.347656 C 44.398438 16.359375 43.675781 18.046875 42.203125 19.460938 C 40.738281 20.867188 38.929688 21.578125 36.71875 21.578125 Z M 36.71875 17.847656 C 37.714844 17.847656 38.59375 17.519531 39.300781 16.851562 C 40.007812 16.179688 40.371094 15.328125 40.371094 14.347656 C 40.371094 13.367188 40.007812 12.515625 39.300781 11.84375 C 38.59375 11.175781 37.714844 10.847656 36.71875 10.847656 C 35.722656 10.847656 34.84375 11.175781 34.136719 11.84375 C 33.425781 12.515625 33.066406 13.367188 33.066406 14.347656 C 33.066406 15.328125 33.425781 16.179688 34.136719 16.851562 C 34.84375 17.519531 35.722656 17.847656 36.71875 17.847656 Z M 36.71875 17.847656 " fill-opacity="1" fill-rule="nonzero"/><g clip-path="url(#ba070a1c78)"><path stroke-linecap="butt" transform="matrix(0.819115, 0, 0, 0.81675, 2.315172, 6.098754)" fill="none" stroke-linejoin="miter" d="M 27.694325 32.664329 L 27.017146 34.089566 L 57.142087 34.089566 L 56.374299 32.626067 C 55.964176 31.851274 55.253615 31.224744 54.371374 30.693867 C 53.479596 30.158207 52.344605 29.689505 50.990247 29.263847 C 48.252916 28.407748 45.258067 27.986872 42.00093 27.986872 C 38.743793 27.986872 35.744175 28.407748 33.011613 29.263847 C 31.657255 29.689505 30.527033 30.16299 29.644792 30.698649 C 28.772089 31.229526 28.071066 31.870405 27.694325 32.664329 Z M 1.498932 38.661804 L 1.498932 34.486528 C 1.498932 32.583023 2.490856 30.952131 4.808526 29.603417 C 7.140503 28.245137 10.292725 27.522953 14.331956 27.522953 C 15.071131 27.522953 15.776923 27.537301 16.454103 27.561214 C 16.568556 27.565997 16.683008 27.57078 16.797461 27.580345 C 16.353956 28.383834 15.991522 29.21602 15.714928 30.076901 C 15.280961 31.439964 15.061593 32.855636 15.061593 34.323917 L 15.061593 38.661804 Z M 22.248278 38.661804 L 22.248278 34.323917 C 22.248278 32.779113 22.691782 31.373007 23.583561 30.09125 C 24.494415 28.780796 25.805853 27.599476 27.551259 26.561635 C 29.287127 25.53336 31.385429 24.744218 33.865241 24.218124 C 36.35459 23.687247 39.063307 23.414635 42.00093 23.414635 C 44.995779 23.414635 47.73311 23.687247 50.222459 24.218124 C 52.70227 24.744218 54.800572 25.53336 56.531672 26.561635 C 58.277077 27.599476 59.569441 28.776014 60.451681 30.081684 C 61.319615 31.363441 61.748813 32.769548 61.748813 34.323917 L 61.748813 38.661804 Z M 68.935498 38.661804 L 68.935498 34.323917 C 68.935498 32.812592 68.739974 31.373007 68.334621 30.014727 C 68.081871 29.168193 67.752819 28.355138 67.342696 27.580345 C 67.45238 27.57078 67.566833 27.565997 67.676517 27.561214 C 68.325083 27.537301 68.987955 27.522953 69.665135 27.522953 C 73.713904 27.522953 76.866126 28.230789 79.198102 29.565155 C 81.501466 30.885174 82.498159 32.520849 82.498159 34.486528 L 82.498159 38.661804 Z M 14.331956 22.238096 C 12.681928 22.238096 11.303725 21.688089 10.135352 20.583291 C 8.971748 19.478493 8.41856 18.191953 8.41856 16.671062 C 8.41856 15.083214 8.981286 13.787109 10.130583 12.720572 C 11.294187 11.639688 12.677159 11.099245 14.331956 11.099245 C 16.058287 11.099245 17.446027 11.64447 18.57148 12.71579 C 19.696933 13.777544 20.250122 15.078431 20.250122 16.671062 C 20.250122 18.196736 19.701702 19.488058 18.566711 20.592856 C 17.43649 21.683306 16.048749 22.238096 14.331956 22.238096 Z M 69.665135 22.238096 C 68.015106 22.238096 66.636903 21.688089 65.468531 20.583291 C 64.304927 19.478493 63.751738 18.191953 63.751738 16.671062 C 63.751738 15.083214 64.314465 13.787109 65.463762 12.720572 C 66.627366 11.639688 68.010337 11.099245 69.665135 11.099245 C 71.391465 11.099245 72.779206 11.64447 73.904659 12.71579 C 75.030112 13.777544 75.5833 15.078431 75.5833 16.671062 C 75.5833 18.196736 75.03488 19.488058 73.89989 20.592856 C 72.769668 21.683306 71.381927 22.238096 69.665135 22.238096 Z M 42.00093 18.952398 C 39.363746 18.952398 37.165298 18.086734 35.338821 16.355406 C 33.517113 14.624077 32.625335 12.557961 32.625335 10.099666 C 32.625335 7.579196 33.521882 5.508298 35.334052 3.810448 C 37.15576 2.103033 39.358977 1.246934 42.00093 1.246934 C 44.704878 1.246934 46.912864 2.107816 48.70119 3.805665 C 50.489515 5.498732 51.376525 7.574414 51.376525 10.099666 C 51.376525 12.562744 50.494284 14.62886 48.696421 16.360188 C 46.908095 18.081951 44.700109 18.952398 42.00093 18.952398 Z M 42.00093 14.384943 C 43.216991 14.384943 44.289987 13.983199 45.153152 13.165361 C 46.016317 12.342741 46.459822 11.300118 46.459822 10.099666 C 46.459822 8.899215 46.016317 7.856591 45.153152 7.033971 C 44.289987 6.216134 43.216991 5.814389 42.00093 5.814389 C 40.784869 5.814389 39.711873 6.216134 38.848708 7.033971 C 37.980774 7.856591 37.542038 8.899215 37.542038 10.099666 C 37.542038 11.300118 37.980774 12.342741 38.848708 13.165361 C 39.711873 13.983199 40.784869 14.384943 42.00093 14.384943 Z M 42.00093 14.384943 " stroke="#292929" stroke-width="2" stroke-opacity="1" stroke-miterlimit="4"/></g></svg>