<svg xmlns="http://www.w3.org/2000/svg" xmlns:xlink="http://www.w3.org/1999/xlink" width="60" zoomAndPan="magnify" viewBox="0 0 45 44.999999" height="60" preserveAspectRatio="xMidYMid meet" version="1.0"><defs><clipPath id="aa189dc4c0"><path d="M 0 4.21875 L 45 4.21875 L 45 40.96875 L 0 40.96875 Z M 0 4.21875 " clip-rule="nonzero"/></clipPath></defs><g clip-path="url(#aa189dc4c0)"><path fill="#ffffff" d="M 33.195312 38.382812 L 33.195312 37.160156 L 43.511719 26.238281 L 43.511719 27.347656 Z M 31.730469 39.050781 C 26.902344 36.695312 23.183594 35.925781 20.386719 35.925781 C 16.878906 35.925781 14.820312 37.136719 13.835938 37.957031 C 13.675781 38.089844 13.453125 38.109375 13.265625 38.007812 L 11.867188 37.238281 C 11.75 37.175781 11.664062 37.070312 11.628906 36.953125 C 10.046875 31.742188 5.390625 28.339844 1.582031 26.347656 L 1.796875 24.617188 C 10.179688 27.695312 13.011719 34.648438 13.039062 34.71875 C 13.039062 34.722656 13.042969 34.730469 13.046875 34.734375 C 13.050781 34.746094 13.058594 34.761719 13.0625 34.773438 C 13.066406 34.78125 13.074219 34.792969 13.078125 34.800781 C 13.082031 34.8125 13.089844 34.824219 13.097656 34.835938 C 13.101562 34.84375 13.109375 34.855469 13.117188 34.863281 C 13.121094 34.875 13.128906 34.886719 13.136719 34.894531 C 13.144531 34.90625 13.152344 34.914062 13.160156 34.921875 C 13.167969 34.933594 13.175781 34.941406 13.183594 34.953125 C 13.191406 34.960938 13.199219 34.96875 13.207031 34.972656 C 13.21875 34.984375 13.226562 34.992188 13.238281 35.003906 C 13.246094 35.007812 13.253906 35.015625 13.261719 35.023438 C 13.273438 35.03125 13.285156 35.042969 13.296875 35.050781 C 13.304688 35.054688 13.3125 35.058594 13.316406 35.0625 C 13.332031 35.074219 13.347656 35.082031 13.363281 35.089844 C 13.367188 35.09375 13.375 35.097656 13.378906 35.101562 C 13.394531 35.109375 13.410156 35.117188 13.429688 35.125 C 13.433594 35.125 13.4375 35.128906 13.441406 35.128906 C 13.445312 35.132812 13.445312 35.132812 13.445312 35.132812 C 13.460938 35.136719 13.476562 35.144531 13.496094 35.148438 C 13.503906 35.152344 13.511719 35.15625 13.519531 35.15625 C 13.53125 35.160156 13.546875 35.164062 13.558594 35.167969 C 13.570312 35.167969 13.582031 35.171875 13.589844 35.175781 C 13.59375 35.175781 13.597656 35.175781 13.601562 35.175781 C 13.609375 35.175781 13.621094 35.179688 13.628906 35.179688 C 13.640625 35.179688 13.65625 35.183594 13.667969 35.183594 C 13.675781 35.183594 13.6875 35.183594 13.699219 35.183594 C 13.710938 35.183594 13.726562 35.183594 13.742188 35.183594 C 13.75 35.183594 13.757812 35.183594 13.765625 35.183594 C 13.78125 35.183594 13.800781 35.179688 13.816406 35.179688 C 13.820312 35.179688 13.828125 35.175781 13.832031 35.175781 C 13.851562 35.171875 13.871094 35.167969 13.890625 35.164062 C 13.890625 35.164062 13.890625 35.164062 13.894531 35.164062 C 13.9375 35.152344 13.976562 35.140625 14.019531 35.121094 C 22.460938 31.335938 30.179688 36.167969 31.730469 37.246094 Z M 5.871094 20.777344 C 7.84375 22.523438 10.6875 25.695312 12.070312 30.308594 C 10.269531 27.984375 7.285156 25.152344 2.664062 23.375 Z M 20.265625 7.40625 C 20.777344 7.789062 21.15625 8.210938 21.402344 8.527344 L 10.976562 17.074219 C 10.730469 17.277344 10.640625 17.617188 10.757812 17.914062 C 10.785156 17.980469 12.792969 23.210938 13.191406 28.980469 C 11.207031 23.257812 7.210938 19.820312 5.421875 18.507812 Z M 26.699219 6.085938 C 28.828125 10.242188 28.332031 19.183594 28.210938 20.917969 L 14.65625 32.757812 C 15.140625 26.398438 12.976562 19.753906 12.308594 17.882812 Z M 43.066406 24.570312 L 32.371094 35.898438 C 30.554688 34.652344 24.449219 31.023438 17.09375 32.578125 L 29.222656 21.984375 C 35.992188 21.332031 41.171875 23.585938 43.066406 24.570312 Z M 44.976562 24.390625 C 44.976562 24.382812 44.972656 24.375 44.972656 24.371094 C 44.972656 24.347656 44.972656 24.328125 44.96875 24.308594 C 44.96875 24.308594 44.96875 24.308594 44.96875 24.304688 C 44.96875 24.300781 44.96875 24.296875 44.96875 24.289062 C 44.964844 24.269531 44.960938 24.25 44.957031 24.230469 C 44.957031 24.222656 44.953125 24.21875 44.953125 24.210938 C 44.945312 24.191406 44.941406 24.175781 44.9375 24.15625 C 44.933594 24.148438 44.929688 24.140625 44.929688 24.132812 C 44.921875 24.117188 44.914062 24.101562 44.90625 24.085938 C 44.902344 24.078125 44.902344 24.070312 44.898438 24.0625 C 44.890625 24.046875 44.878906 24.03125 44.871094 24.015625 C 44.867188 24.007812 44.863281 24.003906 44.859375 23.996094 C 44.847656 23.980469 44.839844 23.964844 44.828125 23.953125 C 44.824219 23.945312 44.820312 23.9375 44.8125 23.933594 C 44.800781 23.917969 44.789062 23.902344 44.777344 23.890625 C 44.773438 23.886719 44.769531 23.878906 44.761719 23.875 C 44.746094 23.855469 44.726562 23.839844 44.707031 23.824219 C 44.703125 23.820312 44.699219 23.820312 44.699219 23.816406 C 44.679688 23.804688 44.664062 23.789062 44.644531 23.777344 C 44.644531 23.777344 44.640625 23.777344 44.640625 23.773438 C 44.382812 23.609375 38.441406 19.824219 29.707031 20.464844 C 29.882812 17.582031 30.1875 8.453125 27.492188 4.558594 C 27.375 4.390625 27.195312 4.277344 26.992188 4.25 C 26.792969 4.222656 26.585938 4.28125 26.429688 4.410156 L 22.539062 7.597656 C 22.144531 7.09375 21.511719 6.421875 20.621094 5.878906 C 20.367188 5.722656 20.042969 5.738281 19.804688 5.917969 L 3.71875 17.945312 C 3.523438 18.09375 3.414062 18.328125 3.425781 18.574219 C 3.4375 18.820312 3.570312 19.042969 3.78125 19.167969 C 3.796875 19.179688 4.152344 19.398438 4.714844 19.824219 L 0.730469 23.050781 C 0.621094 23.136719 0.535156 23.253906 0.488281 23.394531 C 0.484375 23.402344 0.484375 23.40625 0.480469 23.414062 C 0.464844 23.460938 0.457031 23.507812 0.453125 23.550781 L 0.0625 26.675781 C 0.0234375 26.984375 0.1875 27.285156 0.460938 27.425781 C 3.433594 28.917969 8.652344 32.199219 10.230469 37.382812 C 10.378906 37.871094 10.710938 38.277344 11.164062 38.527344 L 12.5625 39.300781 C 13.277344 39.691406 14.140625 39.609375 14.765625 39.089844 C 16.371094 37.761719 21.28125 35.273438 32.128906 40.894531 C 32.15625 40.910156 32.179688 40.921875 32.207031 40.929688 C 32.210938 40.933594 32.214844 40.933594 32.21875 40.933594 C 32.238281 40.941406 32.261719 40.949219 32.285156 40.953125 C 32.289062 40.957031 32.296875 40.957031 32.304688 40.960938 C 32.324219 40.964844 32.34375 40.96875 32.363281 40.96875 C 32.371094 40.972656 32.378906 40.972656 32.386719 40.972656 C 32.410156 40.976562 32.4375 40.976562 32.464844 40.976562 C 32.496094 40.976562 32.523438 40.976562 32.554688 40.972656 C 32.5625 40.972656 32.570312 40.96875 32.578125 40.96875 C 32.601562 40.964844 32.625 40.960938 32.644531 40.953125 C 32.652344 40.953125 32.660156 40.949219 32.667969 40.949219 C 32.695312 40.941406 32.726562 40.929688 32.753906 40.917969 C 32.757812 40.917969 32.757812 40.914062 32.757812 40.914062 C 32.785156 40.902344 32.8125 40.890625 32.835938 40.875 C 32.839844 40.875 32.84375 40.871094 32.84375 40.871094 C 32.847656 40.867188 32.851562 40.863281 32.855469 40.863281 C 32.875 40.851562 32.890625 40.839844 32.90625 40.828125 C 32.914062 40.820312 32.921875 40.816406 32.929688 40.808594 C 32.945312 40.796875 32.960938 40.78125 32.976562 40.765625 C 32.980469 40.761719 32.988281 40.753906 32.996094 40.746094 L 44.777344 28.144531 C 44.902344 28.007812 44.976562 27.828125 44.976562 27.640625 L 44.976562 24.394531 C 44.976562 24.390625 44.976562 24.390625 44.976562 24.390625 " fill-opacity="1" fill-rule="nonzero"/></g></svg>