<svg xmlns="http://www.w3.org/2000/svg" xmlns:xlink="http://www.w3.org/1999/xlink" width="60" zoomAndPan="magnify" viewBox="0 0 45 44.999999" height="60" preserveAspectRatio="xMidYMid meet" version="1.0"><defs><clipPath id="79def7275a"><path d="M 2.730469 2.730469 L 42.480469 2.730469 L 42.480469 42.480469 L 2.730469 42.480469 Z M 2.730469 2.730469 " clip-rule="nonzero"/></clipPath></defs><path fill="#ffffff" d="M 21.328125 10.527344 L 31.554688 10.527344 L 31.554688 20.753906 L 30.816406 20.753906 L 30.492188 18.792969 C 30.320312 17.769531 29.726562 16.847656 28.863281 16.277344 C 28.707031 16.171875 28.546875 16.082031 28.382812 16.003906 C 28.761719 15.558594 28.996094 14.988281 28.996094 14.363281 C 28.996094 12.953125 27.851562 11.808594 26.441406 11.808594 C 25.03125 11.808594 23.886719 12.953125 23.886719 14.363281 C 23.886719 14.988281 24.121094 15.558594 24.5 16.003906 C 24.335938 16.082031 24.175781 16.171875 24.019531 16.277344 C 23.15625 16.847656 22.5625 17.769531 22.390625 18.792969 L 22.066406 20.753906 L 21.328125 20.753906 Z M 24.730469 17.339844 C 25.140625 17.0625 25.617188 16.917969 26.113281 16.917969 L 26.769531 16.917969 C 27.265625 16.917969 27.742188 17.0625 28.152344 17.339844 C 28.726562 17.71875 29.113281 18.324219 29.230469 19 L 29.523438 20.753906 L 23.359375 20.753906 L 23.652344 19 C 23.769531 18.324219 24.15625 17.71875 24.730469 17.339844 Z M 26.441406 15.640625 C 25.738281 15.640625 25.164062 15.066406 25.164062 14.363281 C 25.164062 13.660156 25.738281 13.085938 26.441406 13.085938 C 27.144531 13.085938 27.71875 13.660156 27.71875 14.363281 C 27.71875 15.066406 27.144531 15.640625 26.441406 15.640625 Z M 32.832031 22.03125 L 32.832031 9.25 L 20.050781 9.25 L 20.050781 22.03125 L 32.832031 22.03125 " fill-opacity="1" fill-rule="nonzero"/><path fill="#ffffff" d="M 18.773438 13.085938 L 11.105469 13.085938 L 11.105469 14.363281 L 18.773438 14.363281 L 18.773438 13.085938 " fill-opacity="1" fill-rule="nonzero"/><path fill="#ffffff" d="M 18.773438 15.640625 L 11.105469 15.640625 L 11.105469 16.917969 L 18.773438 16.917969 L 18.773438 15.640625 " fill-opacity="1" fill-rule="nonzero"/><path fill="#ffffff" d="M 18.773438 18.199219 L 11.105469 18.199219 L 11.105469 19.476562 L 18.773438 19.476562 L 18.773438 18.199219 " fill-opacity="1" fill-rule="nonzero"/><path fill="#ffffff" d="M 18.773438 20.753906 L 11.105469 20.753906 L 11.105469 22.03125 L 18.773438 22.03125 L 18.773438 20.753906 " fill-opacity="1" fill-rule="nonzero"/><path fill="#ffffff" d="M 11.105469 24.589844 L 32.832031 24.589844 L 32.832031 23.308594 L 11.105469 23.308594 L 11.105469 24.589844 " fill-opacity="1" fill-rule="nonzero"/><path fill="#ffffff" d="M 25.164062 36.089844 L 31.554688 36.089844 L 31.554688 38.648438 L 25.164062 38.648438 Z M 23.886719 39.925781 L 32.832031 39.925781 L 32.832031 34.8125 L 23.886719 34.8125 L 23.886719 39.925781 " fill-opacity="1" fill-rule="nonzero"/><path fill="#ffffff" d="M 17.496094 39.925781 L 22.605469 39.925781 L 22.605469 38.648438 L 17.496094 38.648438 L 17.496094 39.925781 " fill-opacity="1" fill-rule="nonzero"/><path fill="#ffffff" d="M 17.496094 37.371094 L 22.605469 37.371094 L 22.605469 36.089844 L 17.496094 36.089844 L 17.496094 37.371094 " fill-opacity="1" fill-rule="nonzero"/><g clip-path="url(#79def7275a)"><path fill="#ffffff" d="M 40.488281 36.957031 L 35.386719 37.882812 L 35.386719 7.972656 C 35.386719 7.269531 34.8125 6.695312 34.109375 6.695312 L 18.773438 6.695312 L 18.773438 6.613281 L 36.664062 4.144531 C 37.046875 4.09375 37.402344 4.371094 37.441406 4.753906 L 41.136719 36.085938 C 41.136719 36.117188 41.140625 36.144531 41.140625 36.175781 C 41.140625 36.558594 40.867188 36.886719 40.488281 36.957031 Z M 34.109375 41.203125 L 9.824219 41.203125 L 9.824219 40.191406 L 17.414062 32.601562 L 19.230469 27.144531 L 32.832031 27.144531 L 32.832031 25.867188 L 18.671875 25.867188 L 12.675781 27.863281 L 9.824219 30.714844 L 9.824219 7.972656 L 12.382812 7.972656 L 12.382812 9.890625 C 12.382812 10.949219 13.242188 11.808594 14.300781 11.808594 C 15.359375 11.808594 16.214844 10.949219 16.214844 9.890625 L 16.214844 7.972656 L 17.496094 7.972656 L 17.496094 10.527344 L 18.773438 10.527344 L 18.773438 7.972656 L 34.109375 7.972656 Z M 6.144531 41.203125 C 5.003906 41.203125 4.074219 40.277344 4.074219 39.132812 C 4.074219 38.578125 4.289062 38.058594 4.679688 37.667969 L 5.351562 36.996094 L 8.28125 39.925781 L 7.613281 40.597656 C 7.21875 40.988281 6.699219 41.203125 6.144531 41.203125 Z M 13.019531 29.328125 L 15.953125 32.257812 L 9.1875 39.023438 L 6.257812 36.089844 Z M 15.246094 28.355469 L 16.921875 30.03125 L 16.574219 31.074219 L 14.203125 28.703125 Z M 17.375 28.675781 L 16.601562 27.902344 L 17.761719 27.515625 Z M 13.660156 7.972656 L 14.9375 7.972656 L 14.9375 9.890625 C 14.9375 10.242188 14.652344 10.527344 14.300781 10.527344 C 13.949219 10.527344 13.660156 10.242188 13.660156 9.890625 Z M 13.660156 5.417969 C 13.660156 4.710938 14.234375 4.136719 14.9375 4.136719 L 16.214844 4.136719 C 16.921875 4.136719 17.496094 4.710938 17.496094 5.417969 L 17.496094 6.695312 L 16.214844 6.695312 L 16.214844 5.417969 L 14.9375 5.417969 L 14.9375 6.695312 L 13.660156 6.695312 Z M 42.402344 35.933594 L 38.714844 4.609375 C 38.589844 3.523438 37.574219 2.726562 36.488281 2.878906 L 18.761719 5.324219 C 18.710938 3.957031 17.59375 2.859375 16.214844 2.859375 L 14.9375 2.859375 C 13.527344 2.859375 12.382812 4.003906 12.382812 5.417969 L 12.382812 6.695312 L 9.824219 6.695312 C 9.121094 6.695312 8.546875 7.269531 8.546875 7.972656 L 8.546875 31.992188 L 3.777344 36.761719 C 3.144531 37.398438 2.796875 38.238281 2.796875 39.132812 C 2.796875 40.980469 4.300781 42.480469 6.144531 42.480469 C 7.042969 42.480469 7.882812 42.132812 8.515625 41.5 L 8.574219 41.445312 C 8.683594 42.035156 9.203125 42.480469 9.824219 42.480469 L 34.109375 42.480469 C 34.8125 42.480469 35.386719 41.90625 35.386719 41.203125 L 35.386719 39.183594 L 40.71875 38.214844 C 41.703125 38.035156 42.417969 37.175781 42.417969 36.175781 C 42.417969 36.09375 42.414062 36.011719 42.402344 35.933594 " fill-opacity="1" fill-rule="nonzero"/></g></svg>