<svg xmlns="http://www.w3.org/2000/svg" xmlns:xlink="http://www.w3.org/1999/xlink" width="60" zoomAndPan="magnify" viewBox="0 0 45 44.999999" height="60" preserveAspectRatio="xMidYMid meet" version="1.0"><defs><clipPath id="507d33ea91"><path d="M 2.476562 2.476562 L 42.226562 2.476562 L 42.226562 42.226562 L 2.476562 42.226562 Z M 2.476562 2.476562 " clip-rule="nonzero"/></clipPath></defs><g clip-path="url(#507d33ea91)"><path fill="#ffffff" d="M 24.40625 2.476562 L 4.542969 2.476562 C 3.40625 2.476562 2.484375 3.394531 2.484375 4.53125 L 2.484375 40.167969 C 2.484375 41.304688 3.40625 42.226562 4.542969 42.226562 C 9.132812 42.226562 23.9375 42.226562 28.527344 42.226562 C 29.074219 42.226562 29.597656 42.007812 29.984375 41.621094 C 30.367188 41.238281 30.585938 40.714844 30.585938 40.167969 L 30.585938 24.90625 L 41.222656 14.269531 C 41.863281 13.628906 42.226562 12.757812 42.226562 11.847656 C 42.226562 10.9375 41.863281 10.066406 41.222656 9.425781 C 41.222656 9.421875 41.21875 9.421875 41.21875 9.421875 C 40.578125 8.78125 39.703125 8.417969 38.796875 8.417969 C 37.886719 8.417969 37.015625 8.78125 36.375 9.421875 L 30.585938 15.210938 L 30.585938 8.652344 C 30.585938 8.46875 30.511719 8.296875 30.382812 8.167969 L 24.914062 2.699219 C 24.789062 2.5625 24.609375 2.476562 24.40625 2.476562 Z M 23.722656 3.84375 L 4.542969 3.84375 C 4.164062 3.84375 3.855469 4.152344 3.855469 4.53125 C 3.855469 4.53125 3.855469 40.167969 3.855469 40.167969 C 3.855469 40.546875 4.164062 40.855469 4.542969 40.855469 C 9.132812 40.855469 23.9375 40.855469 28.527344 40.855469 C 28.710938 40.855469 28.882812 40.78125 29.011719 40.652344 C 29.140625 40.523438 29.214844 40.351562 29.214844 40.167969 L 29.214844 26.277344 L 23.9375 31.554688 C 23.890625 31.601562 23.835938 31.644531 23.777344 31.675781 L 15.460938 36.152344 C 12.164062 39.378906 8.464844 38.371094 7.378906 35.867188 C 6.527344 33.910156 6.964844 31.273438 8.875 29.601562 C 10.230469 28.414062 11.292969 27.898438 12.734375 26.886719 C 14.382812 25.730469 15.628906 24.019531 15.824219 20.351562 L 15.578125 20.351562 C 14.902344 20.351562 14.253906 20.082031 13.777344 19.605469 C 13.296875 19.128906 13.03125 18.480469 13.03125 17.804688 L 13.03125 17.800781 C 13.03125 16.933594 12.71875 16.09375 12.152344 15.4375 C 11.257812 14.429688 10.722656 13.109375 10.722656 11.667969 C 10.722656 8.488281 13.324219 5.902344 16.535156 5.902344 C 19.746094 5.902344 22.351562 8.488281 22.351562 11.667969 C 22.351562 13.109375 21.8125 14.429688 20.929688 15.441406 C 20.429688 16.019531 20.128906 16.738281 20.0625 17.496094 C 20.054688 17.597656 20.046875 17.890625 20.039062 17.933594 C 20.007812 18.5625 19.742188 19.160156 19.296875 19.605469 C 18.816406 20.082031 18.167969 20.351562 17.492188 20.351562 L 17.195312 20.351562 C 16.988281 24.691406 15.449219 26.65625 13.523438 28.007812 C 12.125 28.988281 11.09375 29.480469 9.78125 30.632812 C 8.347656 31.886719 8 33.855469 8.636719 35.324219 C 9.421875 37.136719 12.101562 37.511719 14.492188 35.179688 L 18.96875 26.867188 C 19 26.808594 19.042969 26.753906 19.089844 26.707031 L 29.214844 16.578125 C 29.214844 16.5625 29.214844 16.542969 29.214844 16.523438 L 29.214844 9.335938 L 24.40625 9.335938 C 24.027344 9.335938 23.722656 9.03125 23.722656 8.652344 Z M 20.636719 36.742188 L 20.292969 36.742188 C 19.914062 36.742188 19.609375 37.050781 19.609375 37.425781 C 19.609375 37.804688 19.914062 38.113281 20.292969 38.113281 L 20.636719 38.113281 L 20.636719 38.457031 C 20.636719 38.832031 20.941406 39.140625 21.320312 39.140625 C 21.699219 39.140625 22.007812 38.832031 22.007812 38.457031 L 22.007812 38.113281 L 22.347656 38.113281 C 22.726562 38.113281 23.035156 37.804688 23.035156 37.425781 C 23.035156 37.050781 22.726562 36.742188 22.347656 36.742188 L 22.007812 36.742188 L 22.007812 36.398438 C 22.007812 36.019531 21.699219 35.714844 21.320312 35.714844 C 20.941406 35.714844 20.636719 36.019531 20.636719 36.398438 Z M 16.734375 33.910156 L 18.609375 32.898438 C 18.367188 32.558594 18.078125 32.269531 17.746094 32.027344 Z M 20.128906 27.605469 L 18.402344 30.8125 C 18.964844 31.191406 19.4375 31.667969 19.824219 32.246094 L 23.039062 30.515625 L 23.355469 30.199219 L 21.378906 29.804688 C 21.105469 29.75 20.894531 29.539062 20.839844 29.265625 L 20.445312 27.289062 Z M 36.574219 15.039062 L 22.902344 28.710938 L 24.519531 29.035156 L 37.453125 16.101562 C 37.175781 15.734375 36.882812 15.378906 36.574219 15.039062 Z M 34.542969 13.191406 L 21.609375 26.125 L 21.933594 27.742188 L 35.605469 14.070312 C 35.265625 13.761719 34.910156 13.46875 34.542969 13.191406 Z M 7.957031 21.664062 L 7.273438 21.664062 C 6.894531 21.664062 6.585938 21.972656 6.585938 22.351562 C 6.585938 22.726562 6.894531 23.035156 7.273438 23.035156 L 7.957031 23.035156 L 7.957031 23.71875 C 7.957031 24.097656 8.265625 24.40625 8.644531 24.40625 C 9.019531 24.40625 9.328125 24.097656 9.328125 23.71875 L 9.328125 23.035156 L 10.015625 23.035156 C 10.390625 23.035156 10.699219 22.726562 10.699219 22.351562 C 10.699219 21.972656 10.390625 21.664062 10.015625 21.664062 L 9.328125 21.664062 L 9.328125 20.980469 C 9.328125 20.601562 9.019531 20.292969 8.644531 20.292969 C 8.265625 20.292969 7.957031 20.601562 7.957031 20.980469 Z M 17.21875 18.980469 L 17.492188 18.980469 C 17.804688 18.980469 18.105469 18.855469 18.328125 18.636719 C 18.546875 18.414062 18.671875 18.117188 18.671875 17.804688 L 18.691406 17.453125 C 18.769531 16.382812 19.1875 15.363281 19.890625 14.546875 C 19.894531 14.542969 19.894531 14.542969 19.894531 14.542969 C 20.570312 13.769531 20.980469 12.765625 20.980469 11.667969 C 20.980469 9.238281 18.988281 7.273438 16.535156 7.273438 C 14.085938 7.273438 12.089844 9.238281 12.089844 11.667969 C 12.089844 12.765625 12.5 13.765625 13.179688 14.53125 C 13.179688 14.535156 13.183594 14.535156 13.1875 14.539062 C 13.96875 15.445312 14.398438 16.605469 14.398438 17.800781 L 14.398438 17.804688 C 14.398438 18.117188 14.523438 18.414062 14.746094 18.636719 C 14.964844 18.855469 15.265625 18.980469 15.578125 18.980469 L 15.847656 18.980469 L 15.839844 13.117188 L 15.117188 12.640625 C 14.804688 12.433594 14.714844 12.007812 14.925781 11.691406 C 15.132812 11.375 15.558594 11.289062 15.875 11.496094 L 16.535156 11.933594 L 17.195312 11.496094 C 17.511719 11.289062 17.9375 11.375 18.148438 11.691406 C 18.355469 12.007812 18.265625 12.433594 17.953125 12.640625 L 17.210938 13.128906 Z M 38.429688 15.121094 L 40.25 13.300781 C 40.636719 12.914062 40.855469 12.394531 40.855469 11.847656 C 40.855469 11.300781 40.636719 10.78125 40.25 10.394531 C 40.25 10.394531 40.25 10.390625 40.25 10.390625 C 39.863281 10.007812 39.339844 9.789062 38.796875 9.789062 C 38.25 9.789062 37.726562 10.007812 37.34375 10.390625 L 35.519531 12.214844 C 36.613281 13.054688 37.589844 14.03125 38.429688 15.121094 Z M 6.933594 7.28125 L 6.585938 7.28125 C 6.207031 7.28125 5.902344 7.589844 5.902344 7.964844 C 5.902344 8.34375 6.207031 8.652344 6.585938 8.652344 L 6.933594 8.652344 L 6.933594 9 C 6.933594 9.378906 7.242188 9.683594 7.621094 9.683594 C 7.996094 9.683594 8.304688 9.378906 8.304688 9 L 8.304688 8.652344 L 8.652344 8.652344 C 9.03125 8.652344 9.335938 8.34375 9.335938 7.964844 C 9.335938 7.589844 9.03125 7.28125 8.652344 7.28125 L 8.304688 7.28125 L 8.304688 6.933594 C 8.304688 6.554688 7.996094 6.25 7.621094 6.25 C 7.242188 6.25 6.933594 6.554688 6.933594 6.933594 Z M 28.246094 7.964844 L 25.09375 4.816406 L 25.09375 7.964844 Z M 28.246094 7.964844 " fill-opacity="1" fill-rule="evenodd"/></g></svg>