<svg width="65" height="62" viewBox="0 0 65 62" fill="none" xmlns="http://www.w3.org/2000/svg">
<path d="M35.094 47.7524L34.2625 47.8946V48.7381V51.5965H30.575V48.5838V47.7817L29.792 47.6076C27.3905 47.0738 25.492 46.1049 24.048 44.7335C22.7851 43.534 21.791 41.9907 21.0819 40.0756L24.5801 38.7667C25.2784 40.5517 26.2835 41.9862 27.6275 43.0124C29.1884 44.2041 30.9874 44.7995 32.9875 44.7995C34.9267 44.7995 36.6489 44.3655 38.109 43.4508C39.7161 42.4441 40.4875 40.8498 40.4875 38.8608C40.4875 37.0108 39.6376 35.5083 38.0691 34.4139C36.6195 33.4023 34.1346 32.3109 30.7151 31.1253L30.7151 31.1253L30.7077 31.1228C27.5798 30.0654 25.4015 28.8418 24.067 27.5052C22.7925 26.2287 22.125 24.5423 22.125 22.3471C22.125 20.504 22.7787 18.8331 24.1457 17.303C25.4916 15.7965 27.3968 14.7521 29.942 14.2203L30.7375 14.0541V13.2414V10.3831H34.425V13.2414V14.1654L35.3461 14.2383C37.0753 14.3751 38.6553 15.0326 40.105 16.2461C41.2987 17.2453 42.1704 18.3678 42.7406 19.615L39.3677 20.9163C38.877 19.966 38.2056 19.1408 37.3581 18.4477C36.1475 17.4577 34.5404 17.0257 32.6625 17.0257C30.651 17.0257 28.9506 17.4321 27.7055 18.3909C26.4416 19.3642 25.8125 20.72 25.8125 22.3471C25.8125 24.0688 26.6482 25.428 28.1547 26.3611C29.5147 27.2034 31.865 28.1332 35.1117 29.1615C38.9539 30.4805 41.3023 31.9642 42.4142 33.5043C43.5949 35.1396 44.175 36.9165 44.175 38.8608C44.175 41.665 43.2868 43.6328 41.6294 44.9445C39.8242 46.3732 37.6548 47.3147 35.094 47.7524ZM32.5 60.8565C28.1273 60.8565 24.0318 60.0691 20.2042 58.5004C16.3578 56.9241 13.0248 54.7906 10.1949 52.1029C7.3653 49.4155 5.12408 46.2552 3.46981 42.6141C1.82468 38.9932 1 35.1221 1 30.9898C1 26.8574 1.82468 22.9863 3.46981 19.3654C5.12408 15.7244 7.3653 12.5641 10.1949 9.87666C13.0248 7.18896 16.3578 5.05544 20.2042 3.47911C24.0318 1.91047 28.1273 1.12305 32.5 1.12305C36.8727 1.12305 40.9682 1.91047 44.7958 3.47911C48.6422 5.05544 51.9752 7.18896 54.8051 9.87666C57.6347 12.5641 59.8759 15.7244 61.5302 19.3654C63.1753 22.9863 64 26.8574 64 30.9898C64 35.1221 63.1753 38.9932 61.5302 42.6141C59.8759 46.2552 57.6347 49.4155 54.8051 52.1029C51.9752 54.7906 48.6422 56.9241 44.7958 58.5004C40.9682 60.0691 36.8727 60.8565 32.5 60.8565ZM32.5 56.6831C40.002 56.6831 46.4001 54.2011 51.6324 49.2317C56.8669 44.2603 59.5 38.1599 59.5 30.9898C59.5 23.8196 56.8669 17.7193 51.6324 12.7478C46.4001 7.77843 40.002 5.29639 32.5 5.29639C24.998 5.29639 18.5999 7.77843 13.3676 12.7478C8.13307 17.7193 5.5 23.8196 5.5 30.9898C5.5 38.1599 8.13307 44.2603 13.3676 49.2317C18.5999 54.2011 24.998 56.6831 32.5 56.6831Z" fill="white" stroke="#292929" stroke-width="2"/>
</svg>
