<svg width="87" height="67" viewBox="0 0 87 67" fill="none" xmlns="http://www.w3.org/2000/svg">
<path d="M53.1859 63.7839C44.7015 63.7839 37.515 60.8396 31.6266 54.9512C25.7382 49.0628 22.7939 41.8763 22.7939 33.3919C22.7939 24.9708 25.7382 17.8002 31.6266 11.8801C37.515 5.96005 44.7015 3 53.1859 3C61.607 3 68.7776 5.96005 74.6977 11.8801C80.6178 17.8002 83.5778 24.9708 83.5778 33.3919C83.5778 41.8763 80.6178 49.0628 74.6977 54.9512C68.7776 60.8396 61.607 63.7839 53.1859 63.7839ZM53.1859 56.1859C59.5175 56.1859 64.8994 53.9698 69.3316 49.5376C73.7637 45.1055 75.9798 39.7236 75.9798 33.3919C75.9798 27.0603 73.7637 21.6784 69.3316 17.2462C64.8994 12.8141 59.5175 10.598 53.1859 10.598C46.8542 10.598 41.4723 12.8141 37.0402 17.2462C32.608 21.6784 30.3919 27.0603 30.3919 33.3919C30.3919 39.7236 32.608 45.1055 37.0402 49.5376C41.4723 53.9698 46.8542 56.1859 53.1859 56.1859ZM61.8286 47.5432L67.2421 42.1296L56.9849 31.8723V18.196H49.3869V35.0065L61.8286 47.5432ZM3.79899 21.995V14.397H18.995V21.995H3.79899ZM0 37.1909V29.5929H18.995V37.1909H0ZM3.79899 52.3869V44.7889H18.995V52.3869H3.79899Z" fill="white" stroke="#292929" stroke-width="5"/>
</svg>
