<svg width="65" height="65" viewBox="0 0 65 65" fill="none" xmlns="http://www.w3.org/2000/svg">
<path d="M0.420898 30.0676C0.587207 28.9108 0.715264 27.7342 0.919823 26.5774C2.27357 19.1411 5.85585 12.9457 11.5935 8.00139C16.3316 3.918 21.8331 1.33015 28.058 0.607998C40.601 -0.847876 50.8007 3.46026 58.4741 13.4465C61.691 17.5961 63.7065 22.5398 64.3032 27.7441C65.7485 40.1579 61.4627 50.2697 51.4892 57.8994C47.2284 61.1598 42.3206 63.0222 37.0021 63.7923C36.2204 63.9063 35.4338 63.9856 34.6505 64.0815H30.398C29.6147 63.9856 28.828 63.9063 28.048 63.7923C21.8497 62.8801 16.3333 60.4476 11.5985 56.3642C5.86583 51.4215 2.28521 45.2278 0.933128 37.7931C0.72358 36.6363 0.600512 35.468 0.434203 34.3046L0.420898 30.0676ZM61.8186 32.1861C61.8419 16.1566 48.8149 3.13305 32.5583 3.08513C16.3865 3.03721 3.27475 15.9748 3.22818 32.1696C3.18162 48.1991 16.2252 61.2226 32.4818 61.2705C48.6536 61.3284 61.7487 48.3957 61.8186 32.1861Z" fill="white"/>
<path d="M31.13 25.5924C31.13 23.4132 31.13 21.2341 31.13 19.055C31.1157 18.772 31.1917 18.4917 31.3474 18.2543C31.503 18.0168 31.7302 17.8344 31.9964 17.733C32.5336 17.4983 33.0924 17.5793 33.4317 18.004C33.7158 18.3771 33.8762 18.8286 33.8907 19.2962C33.9306 21.9932 33.9107 24.6917 33.9107 27.3936C33.9107 28.6165 33.9273 29.8427 33.9007 31.0655C33.8926 31.2487 33.9259 31.4313 33.9981 31.6001C34.0703 31.7688 34.1797 31.9193 34.3181 32.0405C39.008 36.6841 43.6912 41.3343 48.3678 45.9911C48.5794 46.191 48.7731 46.4089 48.9466 46.6422C49.1195 46.9022 49.197 47.2134 49.1659 47.5235C49.1349 47.8336 48.9972 48.1236 48.7762 48.3446C48.5551 48.5657 48.2641 48.7042 47.9522 48.737C47.6404 48.7697 47.3267 48.6947 47.064 48.5244C46.8604 48.3801 46.671 48.2169 46.4985 48.037C41.6202 43.1962 36.7418 38.3559 31.8634 33.5162C31.6104 33.287 31.4111 33.0054 31.2795 32.6913C31.1479 32.3773 31.0872 32.0383 31.1017 31.6984C31.14 29.6658 31.115 27.6316 31.115 25.5973L31.13 25.5924Z" fill="white"/>
<path d="M31.126 8.94997C31.126 7.73702 31.7729 7.09088 32.809 7.27101C33.6921 7.42469 34.1278 8.36498 33.8817 9.58454C33.8431 9.76694 33.7675 9.9396 33.6595 10.092C33.5515 10.2443 33.4133 10.3732 33.2534 10.4706C33.0935 10.5681 32.9153 10.6321 32.7296 10.6587C32.544 10.6854 32.3548 10.6741 32.1737 10.6256C31.4686 10.4653 31.1243 9.9167 31.126 8.94997Z" fill="white"/>
<path d="M9.16371 33.5656C8.03614 33.5656 7.40583 33.0698 7.41415 32.1725C7.41039 31.8377 7.53291 31.5135 7.75761 31.264C7.9823 31.0144 8.29288 30.8575 8.6282 30.824C8.91892 30.7957 9.21152 30.7912 9.50298 30.8108C10.3262 30.8571 10.8983 31.4371 10.8883 32.1989C10.8783 32.9607 10.3029 33.521 9.47637 33.5639C9.37326 33.5705 9.2768 33.5656 9.16371 33.5656Z" fill="white"/>
<path d="M33.9087 55.3934C33.9187 56.5139 33.4098 57.1402 32.5084 57.1336C32.1713 57.1377 31.8449 57.016 31.5937 56.7927C31.3425 56.5694 31.1846 56.2605 31.1513 55.9272C31.1228 55.6383 31.1183 55.3476 31.138 55.058C31.1829 54.2317 31.7667 53.6715 32.5334 53.6798C33.3 53.688 33.8638 54.2615 33.9087 55.0828C33.9137 55.1852 33.9087 55.2893 33.9087 55.3934Z" fill="white"/>
<path d="M17.7985 16.1728C17.4941 16.5314 17.2414 16.9561 16.8738 17.2337C16.4697 17.5378 15.9708 17.4634 15.5334 17.1875C14.6486 16.6322 14.2328 15.8473 14.454 15.1582C14.5134 14.9495 14.6224 14.758 14.7717 14.5998C14.921 14.4417 15.1064 14.3214 15.3122 14.2492C15.518 14.177 15.7382 14.1549 15.9544 14.1848C16.1706 14.2148 16.3764 14.2958 16.5545 14.4211C17.1783 14.8266 17.6231 15.453 17.7985 16.1728Z" fill="white"/>
<path d="M48.4858 17.4271C48.2829 17.2619 47.8555 17.009 47.5744 16.6455C47.2651 16.2456 47.3316 15.7531 47.6094 15.3135C48.1615 14.4377 48.9565 14.0163 49.6483 14.2328C50.5996 14.5286 50.9621 15.568 50.3618 16.3579C49.9593 16.8884 49.5086 17.3891 48.4858 17.4271Z" fill="white"/>
<path d="M16.4065 46.8145C16.7674 47.1169 17.1948 47.3697 17.4725 47.7349C17.7802 48.1365 17.7053 48.6306 17.4276 49.0668C16.8672 49.9443 16.0772 50.3575 15.3853 50.1377C15.1749 50.0793 14.9816 49.9714 14.822 49.8231C14.6624 49.6748 14.541 49.4905 14.4683 49.2858C14.3955 49.081 14.3734 48.8619 14.404 48.6469C14.4345 48.4318 14.5167 48.2273 14.6436 48.0505C15.0515 47.4306 15.682 46.9886 16.4065 46.8145Z" fill="white"/>
</svg>
