<?xml version="1.0" standalone="no"?>
<!DOCTYPE svg PUBLIC "-//W3C//DTD SVG 20010904//EN"
 "http://www.w3.org/TR/2001/REC-SVG-20010904/DTD/svg10.dtd">
<svg version="1.0" xmlns="http://www.w3.org/2000/svg"
 width="410.000000pt" height="410.000000pt" viewBox="0 0 410.000000 410.000000"
 preserveAspectRatio="xMidYMid meet">
<metadata>
Created by potrace 1.14, written by Peter Selinger 2001-2017
</metadata>
<g transform="translate(0.000000,410.000000) scale(0.100000,-0.100000)"
fill="#000000" stroke="none">
<path d="M23 2960 c-17 -5 -18 -26 -18 -367 1 -199 4 -365 8 -369 8 -8 279 -9
332 0 146 23 244 102 291 232 32 87 28 213 -9 296 -49 111 -156 187 -283 204
-67 9 -294 12 -321 4z m342 -140 c86 -33 135 -110 139 -215 5 -113 -37 -196
-119 -234 -51 -24 -210 -36 -224 -16 -5 8 -7 415 -2 471 1 15 166 10 206 -6z"/>
<path d="M915 2799 c-135 -51 -207 -196 -175 -356 29 -145 145 -237 293 -232
71 2 129 17 149 37 7 7 16 12 20 12 22 0 96 104 98 136 0 18 -149 12 -164 -6
-28 -37 -59 -53 -99 -55 -77 -4 -147 51 -147 115 0 20 3 21 206 20 131 -1 210
2 217 9 19 19 7 120 -23 187 -22 51 -64 93 -125 124 -62 32 -178 36 -250 9z
m151 -108 c39 -2 118 -94 97 -115 -4 -3 -66 -6 -140 -6 -126 0 -133 1 -133 20
0 46 90 113 140 104 8 -1 24 -3 36 -3z"/>
<path d="M1589 2806 c-131 -46 -198 -148 -195 -301 1 -66 6 -90 29 -137 62
-126 197 -182 354 -147 29 7 53 16 53 21 0 4 6 8 14 8 16 0 105 96 108 116 0
8 1 19 2 26 1 9 -21 13 -71 13 -68 1 -75 -1 -98 -26 -73 -83 -219 -42 -237 66
-3 19 4 20 212 25 l215 5 1 64 c1 111 -57 206 -154 252 -56 26 -177 34 -233
15z m169 -130 c31 -16 62 -61 62 -91 0 -13 -20 -15 -140 -15 l-140 0 15 38
c34 82 120 111 203 68z"/>
<path d="M2335 2800 c-22 -9 -52 -29 -67 -43 -30 -28 -30 -27 -31 31 0 22 -2
23 -75 20 l-76 -3 0 -345 c-1 -190 1 -352 2 -362 3 -13 16 -16 77 -15 l74 1
-2 103 c-1 57 1 103 4 103 3 0 15 -9 27 -21 63 -58 187 -76 270 -39 49 22 101
76 132 136 22 43 25 62 25 149 0 80 -4 109 -21 145 -25 55 -87 118 -134 138
-53 22 -157 24 -205 2z m126 -130 c82 -42 112 -158 64 -249 -37 -72 -142 -101
-206 -58 -58 39 -82 90 -81 171 1 60 52 129 108 146 36 11 82 7 115 -10z"/>
<path d="M2088 1978 c-3 -11 -2 -784 1 -870 1 -26 2 -26 74 -25 l74 1 -1 111
c-2 132 1 145 23 113 9 -13 43 -57 76 -97 33 -40 69 -85 79 -100 19 -27 23
-27 113 -27 51 0 93 3 93 7 0 5 -10 19 -22 32 -13 14 -45 50 -73 82 -27 31
-73 82 -102 113 l-51 56 18 26 c10 14 31 39 47 55 16 17 55 61 88 100 33 38
68 77 78 87 9 10 17 21 17 26 0 5 -152 8 -181 3 -5 -1 -93 -105 -132 -156 -61
-81 -67 -87 -68 -69 0 11 -2 134 -3 274 -2 140 -4 258 -5 263 -2 13 -138 8
-143 -5z"/>
<path d="M2731 1894 c-54 -45 -36 -121 33 -144 99 -32 166 100 77 153 -41 24
-74 21 -110 -9z"/>
<path d="M3011 1860 c-5 -11 -7 -736 -2 -771 2 -11 151 -5 152 6 4 70 0 768
-5 772 -3 4 -36 7 -72 7 -50 1 -68 -3 -73 -14z"/>
<path d="M3310 1870 c-4 -3 -7 -180 -6 -395 l1 -390 76 0 77 -1 0 393 c0 216
-3 393 -7 394 -30 3 -135 3 -141 -1z"/>
<path d="M1590 1827 c-114 -33 -173 -112 -167 -223 6 -105 56 -147 249 -208
98 -32 132 -59 130 -107 -3 -99 -169 -122 -211 -29 l-16 36 -79 2 -79 3 7 -41
c18 -113 126 -184 276 -181 95 2 100 3 100 13 0 4 7 8 16 8 17 0 71 35 92 60
45 54 63 156 37 214 -30 68 -76 100 -203 140 -137 43 -162 62 -162 124 0 43
38 74 93 74 53 0 90 -22 106 -60 11 -27 14 -28 88 -26 51 0 78 5 81 13 8 24
-30 100 -64 131 -19 16 -51 37 -72 46 -50 21 -166 27 -222 11z"/>
<path d="M966 1635 c-176 -174 -178 -176 -160 -197 45 -49 324 -323 333 -326
5 -2 35 23 66 54 l56 57 -116 117 -116 116 116 116 116 115 -59 62 -58 63
-178 -177z"/>
<path d="M3675 1750 l-60 -60 118 -118 117 -117 -92 -92 c-51 -50 -103 -102
-116 -116 l-24 -25 56 -56 c30 -31 58 -56 63 -56 4 0 86 78 181 173 l173 173
-154 155 c-85 85 -165 164 -179 176 l-24 23 -59 -60z"/>
<path d="M2721 1672 c-8 -3 -11 -96 -11 -297 l0 -293 78 2 77 2 1 292 c0 161
-2 293 -5 293 -15 4 -131 4 -140 1z"/>
</g>
</svg>
