<svg xmlns="http://www.w3.org/2000/svg" xmlns:xlink="http://www.w3.org/1999/xlink" width="60" zoomAndPan="magnify" viewBox="0 0 45 44.999999" height="60" preserveAspectRatio="xMidYMid meet" version="1.0"><defs><clipPath id="15bb785ebc"><path d="M 2.929688 4.5 L 41.929688 4.5 L 41.929688 43.5 L 2.929688 43.5 Z M 2.929688 4.5 " clip-rule="nonzero"/></clipPath></defs><g clip-path="url(#15bb785ebc)"><path fill="#ffffff" d="M 40.628906 27.894531 L 39.761719 27.894531 C 38.945312 24.429688 35.945312 22.976562 33.054688 22.738281 C 35.125 21.714844 35.910156 19.589844 36.058594 18.058594 C 36.832031 17.796875 37.386719 17.070312 37.386719 16.214844 L 37.386719 13.617188 C 37.386719 10.039062 34.476562 7.128906 30.894531 7.128906 L 29.597656 7.128906 C 26.019531 7.128906 23.109375 10.039062 23.109375 13.617188 L 23.109375 13.996094 L 21.8125 12.699219 L 21.8125 11.023438 C 21.8125 9.945312 20.941406 9.074219 19.863281 9.074219 L 13.375 9.074219 C 12.300781 9.074219 11.429688 9.945312 11.429688 11.023438 L 11.429688 16.242188 C 10.753906 16.308594 10.101562 16.464844 9.480469 16.710938 L 9.480469 7.128906 C 9.480469 6.414062 10.066406 5.832031 10.78125 5.832031 L 39.332031 5.832031 C 40.046875 5.832031 40.628906 6.414062 40.628906 7.128906 Z M 40.628906 30.488281 C 40.628906 31.203125 40.046875 31.785156 39.332031 31.785156 L 21.085938 31.785156 C 21.019531 31.5625 20.917969 31.34375 20.773438 31.152344 C 20.414062 30.683594 20.019531 30.03125 19.710938 29.191406 L 40.628906 29.191406 Z M 22.324219 35.03125 C 22.695312 34.550781 22.972656 33.917969 23.070312 33.085938 L 27.042969 33.085938 C 27.140625 33.917969 27.417969 34.550781 27.789062 35.03125 Z M 30.246094 36.328125 C 30.960938 36.328125 31.546875 36.914062 31.546875 37.628906 L 20.972656 37.628906 C 20.875 37.164062 20.734375 36.734375 20.5625 36.328125 Z M 19.863281 41.519531 C 19.863281 41.878906 19.574219 42.167969 19.214844 42.167969 L 4.941406 42.167969 C 4.582031 42.167969 4.289062 41.878906 4.289062 41.519531 L 4.289062 39.574219 C 4.289062 37.433594 4.949219 35.898438 6.289062 34.882812 C 7.746094 35.3125 9.71875 35.679688 12.078125 35.679688 C 14.4375 35.679688 16.410156 35.3125 17.867188 34.882812 C 19.207031 35.898438 19.863281 37.433594 19.863281 39.574219 Z M 19.828125 35.035156 C 19.65625 34.804688 19.472656 34.589844 19.269531 34.386719 C 19.71875 34.199219 20.066406 34.023438 20.300781 33.875 C 20.601562 33.683594 20.832031 33.402344 20.984375 33.085938 L 21.757812 33.085938 C 21.46875 34.871094 20.011719 35.019531 19.828125 35.03125 Z M 24.433594 18.058594 C 24.585938 19.589844 25.371094 21.714844 27.4375 22.738281 C 24.550781 22.976562 21.550781 24.429688 20.734375 27.894531 L 19.359375 27.894531 C 19.242188 27.308594 19.171875 26.667969 19.171875 25.945312 L 19.171875 23.351562 C 19.171875 21.914062 18.746094 20.578125 18.015625 19.457031 L 19.863281 19.457031 C 20.941406 19.457031 21.8125 18.585938 21.8125 17.511719 L 21.8125 16.863281 L 23.222656 16.863281 C 23.421875 17.421875 23.871094 17.867188 24.433594 18.058594 Z M 28.117188 27.894531 L 22.066406 27.894531 C 22.671875 25.808594 24.25 24.835938 25.714844 24.386719 L 27.128906 27.210938 C 27.292969 27.539062 27.589844 27.773438 27.949219 27.859375 C 28 27.875 28.058594 27.875 28.113281 27.878906 Z M 27.019531 24.09375 C 27.386719 24.042969 27.714844 24.019531 27.980469 24.007812 L 29.328125 25.804688 L 28.261719 26.566406 Z M 31.164062 27.398438 L 31.039062 27.894531 L 29.457031 27.894531 L 29.328125 27.398438 L 30.246094 26.742188 Z M 30.246094 24.863281 L 29.035156 23.246094 C 29.410156 23.308594 29.8125 23.351562 30.246094 23.351562 C 30.683594 23.351562 31.082031 23.308594 31.460938 23.246094 Z M 34.78125 24.386719 C 36.242188 24.835938 37.820312 25.808594 38.425781 27.894531 L 32.375 27.894531 L 32.382812 27.878906 C 32.433594 27.875 32.492188 27.875 32.546875 27.859375 C 32.902344 27.773438 33.199219 27.539062 33.363281 27.210938 Z M 32.234375 26.566406 L 31.164062 25.804688 L 32.511719 24.007812 C 32.78125 24.019531 33.109375 24.042969 33.472656 24.09375 Z M 24.40625 14.382812 L 24.40625 13.617188 C 24.40625 10.753906 26.738281 8.425781 29.597656 8.425781 L 30.894531 8.425781 C 33.757812 8.425781 36.085938 10.753906 36.085938 13.617188 L 36.085938 14.382812 C 36.066406 14.371094 36.046875 14.363281 36.023438 14.359375 C 35.78125 13.296875 34.855469 12.480469 33.722656 12.410156 C 32.839844 12.355469 31.597656 12.101562 30.707031 11.210938 C 30.453125 10.957031 30.042969 10.957031 29.789062 11.210938 C 28.898438 12.101562 27.65625 12.355469 26.773438 12.410156 C 25.640625 12.480469 24.714844 13.296875 24.46875 14.359375 C 24.449219 14.363281 24.425781 14.371094 24.40625 14.382812 Z M 25.054688 15.5625 C 25.414062 15.5625 25.703125 15.273438 25.703125 14.914062 C 25.703125 14.277344 26.210938 13.742188 26.851562 13.707031 C 28.195312 13.621094 29.359375 13.21875 30.246094 12.53125 C 31.136719 13.21875 32.296875 13.621094 33.640625 13.707031 C 34.285156 13.742188 34.789062 14.277344 34.789062 14.914062 C 34.789062 15.273438 35.082031 15.5625 35.4375 15.5625 C 35.796875 15.5625 36.085938 15.855469 36.085938 16.214844 C 36.085938 16.570312 35.796875 16.863281 35.4375 16.863281 C 35.082031 16.863281 34.792969 17.152344 34.789062 17.507812 C 34.789062 17.691406 34.714844 22.054688 30.246094 22.054688 C 25.78125 22.054688 25.707031 17.691406 25.703125 17.507812 C 25.703125 17.152344 25.414062 16.863281 25.054688 16.863281 C 24.699219 16.863281 24.40625 16.570312 24.40625 16.214844 C 24.40625 15.855469 24.699219 15.5625 25.054688 15.5625 Z M 20.703125 13.425781 L 22.839844 15.5625 L 21.164062 15.5625 C 20.804688 15.5625 20.515625 15.855469 20.515625 16.214844 L 20.515625 17.511719 C 20.515625 17.867188 20.222656 18.160156 19.863281 18.160156 L 16.933594 18.160156 C 15.808594 17.097656 14.347656 16.394531 12.726562 16.246094 L 12.726562 11.023438 C 12.726562 10.664062 13.019531 10.371094 13.375 10.371094 L 19.863281 10.371094 C 20.222656 10.371094 20.515625 10.664062 20.515625 11.023438 L 20.515625 12.96875 C 20.515625 13.140625 20.582031 13.304688 20.703125 13.425781 Z M 4.550781 32.777344 C 4.417969 32.691406 4.328125 32.558594 4.296875 32.40625 C 4.269531 32.242188 4.3125 32.074219 4.414062 31.9375 C 5.265625 30.824219 6.28125 28.878906 6.28125 25.945312 L 6.28125 23.351562 C 6.28125 21.792969 6.886719 20.324219 7.980469 19.222656 C 9.078125 18.117188 10.53125 17.511719 12.078125 17.511719 C 15.273438 17.511719 17.871094 20.128906 17.871094 23.351562 L 17.871094 25.945312 C 17.871094 28.878906 18.890625 30.824219 19.742188 31.941406 C 19.84375 32.074219 19.886719 32.242188 19.855469 32.40625 C 19.828125 32.558594 19.738281 32.691406 19.605469 32.777344 C 18.898438 33.222656 16.167969 34.382812 12.078125 34.382812 C 7.988281 34.382812 5.257812 33.222656 4.550781 32.777344 Z M 39.332031 4.53125 L 10.78125 4.53125 C 9.347656 4.53125 8.183594 5.695312 8.183594 7.128906 L 8.183594 17.382812 C 7.785156 17.648438 7.40625 17.957031 7.0625 18.304688 C 5.722656 19.65625 4.984375 21.449219 4.984375 23.351562 L 4.984375 25.945312 C 4.984375 28.515625 4.113281 30.195312 3.386719 31.152344 C 3.0625 31.570312 2.929688 32.113281 3.023438 32.632812 C 3.113281 33.144531 3.417969 33.597656 3.855469 33.875 C 4.089844 34.023438 4.441406 34.199219 4.886719 34.386719 C 3.636719 35.636719 2.992188 37.367188 2.992188 39.574219 L 2.992188 41.519531 C 2.992188 42.59375 3.863281 43.46875 4.941406 43.46875 L 19.214844 43.46875 C 20.289062 43.46875 21.164062 42.59375 21.164062 41.519531 L 21.164062 39.574219 C 21.164062 39.351562 21.144531 39.140625 21.132812 38.925781 L 31.546875 38.925781 C 32.261719 38.925781 32.84375 38.34375 32.84375 37.628906 C 32.84375 36.207031 31.695312 35.050781 30.273438 35.035156 L 30.273438 35.03125 C 30.203125 35.027344 28.65625 34.929688 28.355469 33.085938 L 39.332031 33.085938 C 40.765625 33.085938 41.929688 31.921875 41.929688 30.488281 L 41.929688 7.128906 C 41.929688 5.695312 40.765625 4.53125 39.332031 4.53125 " fill-opacity="1" fill-rule="nonzero"/></g><path fill="#ffffff" d="M 18.566406 12.320312 L 14.671875 12.320312 C 14.316406 12.320312 14.023438 12.609375 14.023438 12.96875 C 14.023438 13.324219 14.316406 13.617188 14.671875 13.617188 L 18.566406 13.617188 C 18.925781 13.617188 19.214844 13.324219 19.214844 12.96875 C 19.214844 12.609375 18.925781 12.320312 18.566406 12.320312 " fill-opacity="1" fill-rule="nonzero"/><path fill="#ffffff" d="M 18.566406 14.914062 L 16.621094 14.914062 C 16.261719 14.914062 15.972656 15.207031 15.972656 15.5625 C 15.972656 15.921875 16.261719 16.214844 16.621094 16.214844 L 18.566406 16.214844 C 18.925781 16.214844 19.214844 15.921875 19.214844 15.5625 C 19.214844 15.207031 18.925781 14.914062 18.566406 14.914062 " fill-opacity="1" fill-rule="nonzero"/></svg>